<svg width="32" height="32" viewBox="0 0 32 32" fill="none" xmlns="http://www.w3.org/2000/svg">
<path d="M20.8662 2.66663C21.4323 2.6653 21.8799 3.10508 21.8812 3.69145L21.8825 4.69095C25.5554 4.97881 27.9816 7.48155 27.9855 11.3196L28 22.554C28.0053 26.7386 25.3763 29.3133 21.1624 29.3199L10.8692 29.3333C6.6816 29.3386 4.01976 26.7026 4.0145 22.506L4.00001 11.4036C3.99475 7.54019 6.33538 5.04411 10.0082 4.70694L10.0069 3.70744C10.0056 3.12107 10.44 2.67996 11.0193 2.67996C11.5985 2.67863 12.0329 3.11841 12.0342 3.70478L12.0356 4.63764L19.8552 4.62698L19.8539 3.69412C19.8526 3.10774 20.287 2.66796 20.8662 2.66663ZM21.4033 21.5892H21.3902C20.7846 21.6038 20.2988 22.1116 20.312 22.7246C20.3133 23.3376 20.8017 23.8427 21.4073 23.856C22.0247 23.8547 22.5249 23.3469 22.5236 22.7206C22.5236 22.0942 22.022 21.5892 21.4033 21.5892ZM10.5559 21.5905C9.95031 21.6171 9.4764 22.1249 9.47771 22.7379C9.50536 23.3509 10.0056 23.8307 10.6112 23.8027C11.2049 23.7761 11.6775 23.2683 11.6498 22.6553C11.6367 22.0556 11.1483 21.5892 10.5559 21.5905ZM15.9796 21.5838C15.374 21.6118 14.9014 22.1182 14.9014 22.7313C14.9291 23.3443 15.4293 23.8227 16.0349 23.7961C16.6273 23.7681 17.1012 23.2617 17.0736 22.6473C17.0604 22.0489 16.572 21.5825 15.9796 21.5838ZM10.5493 16.7929C9.94373 16.8195 9.47113 17.3273 9.47244 17.9403C9.49878 18.5533 10.0003 19.0331 10.6059 19.0051C11.1983 18.9785 11.6709 18.4707 11.6433 17.8577C11.6301 17.258 11.143 16.7916 10.5493 16.7929ZM15.9743 16.7462C15.3688 16.7729 14.8949 17.2806 14.8962 17.8937C14.9225 18.5067 15.4241 18.9851 16.0296 18.9585C16.622 18.9305 17.0946 18.4241 17.0683 17.811C17.0538 17.2113 16.5667 16.7449 15.9743 16.7462ZM21.3981 16.7529C20.7925 16.7662 20.3186 17.2593 20.3199 17.8724V17.887C20.3331 18.5 20.8333 18.9651 21.4402 18.9518C22.0326 18.9372 22.5052 18.4294 22.492 17.8164C22.4644 17.23 21.9891 16.7516 21.3981 16.7529ZM19.8578 6.67929L12.0382 6.68995L12.0395 7.76808C12.0395 8.34246 11.6064 8.79556 11.0272 8.79556C10.4479 8.7969 10.0122 8.34512 10.0122 7.77074L10.0109 6.74459C7.44382 7.00179 6.02338 8.51037 6.02732 11.4009L6.02865 11.8154L25.9595 11.7887V11.3223C25.9029 8.45707 24.4654 6.95382 21.8851 6.72993L21.8865 7.75608C21.8865 8.32913 21.4402 8.78357 20.8741 8.78357C20.2949 8.7849 19.8591 8.33179 19.8591 7.75875L19.8578 6.67929Z" fill="#ABCEF5"/>
</svg>
