<svg width="221" height="48" viewBox="0 0 221 48" fill="none" xmlns="http://www.w3.org/2000/svg">
<path d="M14.645 4.18016C13.7215 4.78341 12.9526 5.59507 12.3999 6.54959C11.8474 7.50411 11.5265 8.57501 11.4633 9.67615V15.9351C11.5265 17.0362 11.8474 18.1071 12.3999 19.0617C12.9526 20.0163 13.7215 20.8278 14.645 21.4311L21.2283 25.3106C22.9744 26.3192 24.41 25.4917 24.41 23.4742V2.26625C24.41 0.248922 22.9744 -0.578638 21.2283 0.430027L14.645 4.18016Z" fill="#4987FA"/>
<path d="M14.5336 22.2801C13.5768 21.8044 12.5194 21.5565 11.4471 21.5565C10.3748 21.5565 9.31749 21.8044 8.36061 22.2801L3.09281 25.2465C2.19518 25.8231 1.44772 26.5987 0.910494 27.511C0.373363 28.4234 0.061471 29.4469 0 30.4994L0 37.7669C0 39.6951 1.3956 40.4861 3.09281 39.5221L20.9455 29.387C22.6428 28.423 22.6428 26.8533 20.9455 25.8891L14.5336 22.2801Z" fill="#4987FA"/>
<path d="M34.8156 4.18016C35.7391 4.78341 36.5081 5.59507 37.0606 6.54959C37.6132 7.50411 37.9341 8.57501 37.9973 9.67615V15.9351C37.9341 17.0362 37.6132 18.1071 37.0606 19.0617C36.5081 20.0163 35.7391 20.8278 34.8156 21.4311L28.2194 25.3106C26.4733 26.3192 25.0506 25.4917 25.0506 23.4742V2.26625C25.0506 0.248922 26.4733 -0.578638 28.2194 0.430027L34.8156 4.18016Z" fill="#4987FA"/>
<path d="M34.8755 22.2801C35.8722 21.8044 36.9734 21.5565 38.0902 21.5565C39.2071 21.5565 40.3084 21.8044 41.305 22.2801L46.7918 25.2465C47.725 25.8237 48.5016 26.5998 49.0588 27.5122C49.6161 28.4246 49.9385 29.4478 50 30.4994V37.7669C50 39.6951 48.5595 40.4861 46.7918 39.5221L28.1971 29.387C26.4292 28.423 26.4292 26.8533 28.1971 25.8891L34.8755 22.2801Z" fill="#4987FA"/>
<path d="M9.88076 47.2773C10.8382 47.7525 11.8961 48 12.9689 48C14.0419 48 15.0998 47.7525 16.0572 47.2773L21.3281 44.3026C22.2249 43.7235 22.9708 42.9462 23.5061 42.033C24.0412 41.1198 24.3508 40.0962 24.41 39.0445V31.7866C24.41 29.861 23.0263 29.0711 21.3281 30.0339L3.46518 40.1553C1.76695 41.1181 1.76695 42.6857 3.46518 43.6484L9.88076 47.2773Z" fill="#4987FA"/>
<path d="M25.0506 39.0504C25.1132 40.0996 25.436 41.1204 25.9931 42.0308C26.5503 42.9413 27.3263 43.716 28.2588 44.2928L33.7456 47.2778C34.7423 47.7527 35.8435 48 36.9604 48C38.0773 48 39.1785 47.7527 40.1751 47.2778L46.8535 43.6391C48.6213 42.6769 48.6213 41.1103 46.8535 40.1482L28.2588 30.0336C26.491 29.0715 25.0506 29.8609 25.0506 31.7851V39.0504Z" fill="#4987FA"/>
<path d="M65.8999 15.2727V8.90909H91.1839V15.2727H82.4339V38H74.6499V15.2727H65.8999ZM101.56 38.3977C99.2308 38.3977 97.2232 37.9527 95.5376 37.0625C93.8615 36.1629 92.5689 34.875 91.6598 33.1989C90.7602 31.5133 90.3104 29.4962 90.3104 27.1477C90.3104 24.8939 90.7649 22.9242 91.674 21.2386C92.5831 19.553 93.8662 18.2415 95.5234 17.304C97.1806 16.3665 99.1361 15.8977 101.39 15.8977C103.038 15.8977 104.529 16.1534 105.864 16.6648C107.2 17.1761 108.341 17.9195 109.288 18.8949C110.235 19.8608 110.964 21.035 111.475 22.4176C111.987 23.8002 112.242 25.358 112.242 27.0909V28.9091H92.7536V24.5909H105.026C105.017 23.9659 104.856 23.4167 104.543 22.9432C104.24 22.4602 103.828 22.0862 103.308 21.821C102.796 21.5464 102.214 21.4091 101.56 21.4091C100.926 21.4091 100.344 21.5464 99.8132 21.821C99.2829 22.0862 98.8568 22.4555 98.5348 22.929C98.2223 23.4025 98.0566 23.9564 98.0376 24.5909V29.25C98.0376 29.9508 98.1844 30.5758 98.478 31.125C98.7715 31.6742 99.1929 32.1051 99.7422 32.4176C100.291 32.7301 100.954 32.8864 101.731 32.8864C102.271 32.8864 102.763 32.8106 103.208 32.6591C103.663 32.5076 104.051 32.2898 104.373 32.0057C104.695 31.7121 104.932 31.3617 105.083 30.9545H112.242C111.996 32.4697 111.414 33.786 110.495 34.9034C109.576 36.0114 108.36 36.8731 106.844 37.4886C105.339 38.0947 103.577 38.3977 101.56 38.3977ZM121.521 38.3409C120.129 38.3409 118.898 38.1136 117.828 37.6591C116.768 37.1951 115.934 36.4943 115.328 35.5568C114.722 34.6193 114.419 33.4261 114.419 31.9773C114.419 30.7841 114.623 29.7661 115.03 28.9233C115.437 28.071 116.005 27.375 116.734 26.8352C117.464 26.2955 118.311 25.8835 119.277 25.5994C120.252 25.3153 121.304 25.1307 122.43 25.0455C123.652 24.9508 124.632 24.8371 125.371 24.7045C126.119 24.5625 126.659 24.3684 126.99 24.1222C127.321 23.8665 127.487 23.5303 127.487 23.1136V23.0568C127.487 22.4886 127.269 22.053 126.834 21.75C126.398 21.447 125.839 21.2955 125.158 21.2955C124.41 21.2955 123.799 21.4612 123.325 21.7926C122.861 22.1146 122.582 22.6117 122.487 23.2841H115.271C115.366 21.9583 115.787 20.7367 116.536 19.6193C117.293 18.4924 118.396 17.5928 119.845 16.9205C121.294 16.2386 123.103 15.8977 125.271 15.8977C126.834 15.8977 128.235 16.0824 129.476 16.4517C130.716 16.8116 131.772 17.3182 132.643 17.9716C133.515 18.6155 134.178 19.3731 134.632 20.2443C135.096 21.1061 135.328 22.0436 135.328 23.0568V38H127.999V34.9318H127.828C127.393 35.7462 126.862 36.4044 126.237 36.9062C125.622 37.4081 124.916 37.7727 124.121 38C123.335 38.2273 122.468 38.3409 121.521 38.3409ZM124.078 33.3977C124.675 33.3977 125.233 33.2746 125.754 33.0284C126.285 32.7822 126.715 32.4271 127.047 31.9631C127.378 31.4991 127.544 30.9356 127.544 30.2727V28.4545C127.336 28.5398 127.113 28.6203 126.876 28.696C126.649 28.7718 126.403 28.8428 126.138 28.9091C125.882 28.9754 125.607 29.0369 125.314 29.0938C125.03 29.1506 124.732 29.2027 124.419 29.25C123.813 29.3447 123.316 29.5009 122.928 29.7188C122.549 29.9271 122.265 30.1875 122.075 30.5C121.895 30.803 121.805 31.1439 121.805 31.5227C121.805 32.1288 122.018 32.5928 122.445 32.9148C122.871 33.2367 123.415 33.3977 124.078 33.3977ZM139.075 38V16.1818H146.518V20.3295H146.745C147.2 18.9659 147.976 17.8864 149.075 17.0909C150.173 16.2955 151.48 15.8977 152.995 15.8977C154.529 15.8977 155.85 16.3049 156.958 17.1193C158.066 17.9242 158.734 18.9943 158.961 20.3295H159.188C159.558 18.9943 160.344 17.9242 161.546 17.1193C162.749 16.3049 164.16 15.8977 165.779 15.8977C167.872 15.8977 169.567 16.5701 170.864 17.9148C172.171 19.2595 172.825 21.0492 172.825 23.2841V38H164.984V25.2727C164.984 24.3163 164.742 23.5682 164.259 23.0284C163.776 22.4792 163.128 22.2045 162.313 22.2045C161.508 22.2045 160.869 22.4792 160.396 23.0284C159.932 23.5682 159.7 24.3163 159.7 25.2727V38H152.2V25.2727C152.2 24.3163 151.958 23.5682 151.475 23.0284C150.992 22.4792 150.344 22.2045 149.529 22.2045C148.989 22.2045 148.525 22.3277 148.137 22.5739C147.749 22.8201 147.446 23.1752 147.228 23.6392C147.02 24.0937 146.915 24.6383 146.915 25.2727V38H139.075ZM184.135 38H175.612L185.214 8.90909H196.01L205.612 38H197.089L190.726 16.9205H190.499L184.135 38ZM182.544 26.5227H198.567V32.4318H182.544V26.5227ZM216.312 8.90909V38H208.414V8.90909H216.312Z" fill="#4987FA"/>
</svg>
