<svg width="346" height="261" viewBox="0 0 346 261" fill="none" xmlns="http://www.w3.org/2000/svg">
<path d="M326.965 163.717C326.758 156.131 327.347 143.194 320.697 137.867C314.854 133.191 310.311 139.538 308.671 144.658C304.699 157.078 306.563 170.774 306.576 183.596C306.576 183.79 306.576 183.985 306.576 184.203C306.266 193.642 305.13 203.852 306.163 213.272C306.163 213.272 305.148 203.833 297.738 207.878C290.328 211.923 301.443 233.151 301.443 233.151C301.443 233.151 292.685 226.749 288.64 232.143C284.595 237.536 293.693 243.598 293.693 243.598C293.693 243.598 285.269 241.241 285.269 243.598C285.269 245.954 287.966 247.977 295.716 248.991H337.49C337.49 248.991 344.232 245.28 342.884 241.241C341.535 237.202 334.454 239.528 334.454 239.528C334.454 239.528 345.24 226.385 344.566 220.657C343.892 214.93 330.074 221.672 330.074 221.672C330.074 221.672 340.855 194.377 338.833 182.248C337.241 172.694 329.825 179.211 325.786 182.904C326.737 176.555 327.131 170.135 326.965 163.717Z" fill="#4987FA" stroke="white" stroke-linecap="round" stroke-linejoin="round"/>
<path opacity="0.5" d="M326.965 163.717C326.758 156.131 327.347 143.194 320.697 137.867C314.854 133.191 310.311 139.538 308.671 144.658C304.699 157.078 306.563 170.774 306.576 183.596C306.576 183.79 306.576 183.985 306.576 184.203C306.266 193.642 305.13 203.852 306.163 213.272C306.163 213.272 305.148 203.833 297.738 207.878C290.328 211.923 301.443 233.151 301.443 233.151C301.443 233.151 292.685 226.749 288.64 232.143C284.595 237.536 293.693 243.598 293.693 243.598C293.693 243.598 285.269 241.241 285.269 243.598C285.269 245.954 287.966 247.977 295.716 248.991H337.49C337.49 248.991 344.232 245.28 342.884 241.241C341.535 237.202 334.454 239.528 334.454 239.528C334.454 239.528 345.24 226.385 344.566 220.657C343.892 214.93 330.074 221.672 330.074 221.672C330.074 221.672 340.855 194.377 338.833 182.248C337.241 172.694 329.825 179.211 325.786 182.904C326.737 176.555 327.131 170.135 326.965 163.717Z" fill="white"/>
<path d="M313.56 248.627L316.597 155.961" stroke="white" stroke-linecap="round" stroke-linejoin="round"/>
<path d="M315.249 209.877L331.083 195.051" stroke="white" stroke-linecap="round" stroke-linejoin="round"/>
<path d="M322.659 203.135L326.029 193.702" stroke="white" stroke-linecap="round" stroke-linejoin="round"/>
<path d="M302.105 221.332L314.234 234.475" stroke="white" stroke-linecap="round" stroke-linejoin="round"/>
<path d="M334.454 228.747L314.234 239.194" stroke="white" stroke-linecap="round" stroke-linejoin="round"/>
<path d="M323.673 234.809L331.083 234.475" stroke="white" stroke-linecap="round" stroke-linejoin="round"/>
<path d="M313.56 248.627L316.597 155.961" stroke="#4987FA" stroke-linecap="round" stroke-linejoin="round"/>
<path d="M315.249 209.877L331.083 195.051" stroke="#4987FA" stroke-linecap="round" stroke-linejoin="round"/>
<path d="M322.659 203.135L326.029 193.702" stroke="#4987FA" stroke-linecap="round" stroke-linejoin="round"/>
<path d="M302.105 221.332L314.234 234.475" stroke="#4987FA" stroke-linecap="round" stroke-linejoin="round"/>
<path d="M334.454 228.747L314.234 239.194" stroke="#4987FA" stroke-linecap="round" stroke-linejoin="round"/>
<path d="M323.673 234.809L331.083 234.475" stroke="#4987FA" stroke-linecap="round" stroke-linejoin="round"/>
<g opacity="0.8">
<path opacity="0.8" d="M313.56 248.627L316.597 155.961" stroke="white" stroke-linecap="round" stroke-linejoin="round"/>
<path opacity="0.8" d="M315.249 209.877L331.083 195.051" stroke="white" stroke-linecap="round" stroke-linejoin="round"/>
<path opacity="0.8" d="M322.659 203.135L326.029 193.703" stroke="white" stroke-linecap="round" stroke-linejoin="round"/>
<path opacity="0.8" d="M302.105 221.332L314.234 234.475" stroke="white" stroke-linecap="round" stroke-linejoin="round"/>
<path opacity="0.8" d="M334.454 228.747L314.234 239.194" stroke="white" stroke-linecap="round" stroke-linejoin="round"/>
<path opacity="0.8" d="M323.673 234.809L331.083 234.475" stroke="white" stroke-linecap="round" stroke-linejoin="round"/>
</g>
<path d="M255.678 229.902C255.678 239.322 263.143 246.963 263.143 246.963C263.143 246.963 270.607 239.322 270.607 229.902C270.607 220.481 263.143 212.841 263.143 212.841C263.143 212.841 255.678 220.475 255.678 229.902Z" fill="#4987FA"/>
<path d="M250.504 244.436C254.148 248.524 260.306 248.967 260.306 248.967C260.306 248.967 260.604 242.778 256.984 238.69C253.364 234.603 247.181 234.159 247.181 234.159C247.181 234.159 246.878 240.348 250.504 244.436Z" fill="#4987FA"/>
<path d="M269.526 238.55C265.718 242.468 265.742 248.663 265.742 248.663C265.742 248.663 271.931 248.499 275.733 244.575C279.536 240.652 279.523 234.463 279.523 234.463C279.523 234.463 273.328 234.627 269.526 238.55Z" fill="#4987FA"/>
<g opacity="0.5">
<path opacity="0.5" d="M255.678 229.902C255.678 239.322 263.143 246.963 263.143 246.963C263.143 246.963 270.607 239.322 270.607 229.902C270.607 220.481 263.143 212.841 263.143 212.841C263.143 212.841 255.678 220.475 255.678 229.902Z" fill="white"/>
<path opacity="0.5" d="M263.143 246.963V212.841" stroke="white" stroke-linecap="round" stroke-linejoin="round"/>
<path opacity="0.5" d="M263.143 224.97L258.964 221.32" stroke="white" stroke-linecap="round" stroke-linejoin="round"/>
<path opacity="0.5" d="M263.21 230.606L268.384 223.111" stroke="white" stroke-linecap="round" stroke-linejoin="round"/>
<path opacity="0.5" d="M263.143 233.856L256.972 228.353" stroke="white" stroke-linecap="round" stroke-linejoin="round"/>
<path opacity="0.5" d="M263.21 238.235L269.314 232.799" stroke="white" stroke-linecap="round" stroke-linejoin="round"/>
<path opacity="0.5" d="M263.21 242.019L258.43 238.235" stroke="white" stroke-linecap="round" stroke-linejoin="round"/>
<path opacity="0.5" d="M250.504 244.436C254.148 248.523 260.306 248.967 260.306 248.967C260.306 248.967 260.604 242.778 256.984 238.69C253.364 234.603 247.181 234.159 247.181 234.159C247.181 234.159 246.878 240.348 250.504 244.436Z" fill="white"/>
<path opacity="0.5" d="M260.306 248.967L247.181 234.159" stroke="white" stroke-linecap="round" stroke-linejoin="round"/>
<path opacity="0.5" d="M251.846 239.425L248.627 239.45" stroke="white" stroke-linecap="round" stroke-linejoin="round"/>
<path opacity="0.5" d="M254.044 241.842L253.407 236.601" stroke="white" stroke-linecap="round" stroke-linejoin="round"/>
<path opacity="0.5" d="M255.265 243.282L250.473 243.264" stroke="white" stroke-linecap="round" stroke-linejoin="round"/>
<path opacity="0.5" d="M256.978 245.152L257.531 240.445" stroke="white" stroke-linecap="round" stroke-linejoin="round"/>
<path opacity="0.5" d="M258.436 246.792L254.907 246.993" stroke="white" stroke-linecap="round" stroke-linejoin="round"/>
<path opacity="0.5" d="M269.526 238.551C265.718 242.468 265.742 248.663 265.742 248.663C265.742 248.663 271.931 248.499 275.733 244.576C279.536 240.652 279.523 234.463 279.523 234.463C279.523 234.463 273.328 234.627 269.526 238.551Z" fill="white"/>
<path opacity="0.5" d="M265.742 248.663L279.523 234.463" stroke="white" stroke-linecap="round" stroke-linejoin="round"/>
<path opacity="0.5" d="M274.622 239.51L274.361 236.303" stroke="white" stroke-linecap="round" stroke-linejoin="round"/>
<path opacity="0.5" d="M272.375 241.885L277.556 240.853" stroke="white" stroke-linecap="round" stroke-linejoin="round"/>
<path opacity="0.5" d="M271.033 243.209L270.692 238.429" stroke="white" stroke-linecap="round" stroke-linejoin="round"/>
<path opacity="0.5" d="M269.289 245.055L274.027 245.262" stroke="white" stroke-linecap="round" stroke-linejoin="round"/>
<path opacity="0.5" d="M267.765 246.629L267.303 243.13" stroke="white" stroke-linecap="round" stroke-linejoin="round"/>
</g>
<path d="M263.143 246.963V212.841" stroke="#4987FA" stroke-linecap="round" stroke-linejoin="round"/>
<path d="M263.143 224.969L258.964 221.319" stroke="#4987FA" stroke-linecap="round" stroke-linejoin="round"/>
<path d="M263.21 230.606L268.384 223.111" stroke="#4987FA" stroke-linecap="round" stroke-linejoin="round"/>
<path d="M263.143 233.855L256.972 228.353" stroke="#4987FA" stroke-linecap="round" stroke-linejoin="round"/>
<path d="M263.21 238.235L269.314 232.799" stroke="#4987FA" stroke-linecap="round" stroke-linejoin="round"/>
<path d="M263.21 242.018L258.43 238.235" stroke="#4987FA" stroke-linecap="round" stroke-linejoin="round"/>
<g opacity="0.7">
<path opacity="0.7" d="M263.143 246.963V212.841" stroke="white" stroke-linecap="round" stroke-linejoin="round"/>
<path opacity="0.7" d="M263.143 224.97L258.964 221.32" stroke="white" stroke-linecap="round" stroke-linejoin="round"/>
<path opacity="0.7" d="M263.21 230.606L268.384 223.111" stroke="white" stroke-linecap="round" stroke-linejoin="round"/>
<path opacity="0.7" d="M263.143 233.856L256.972 228.353" stroke="white" stroke-linecap="round" stroke-linejoin="round"/>
<path opacity="0.7" d="M263.21 238.235L269.314 232.799" stroke="white" stroke-linecap="round" stroke-linejoin="round"/>
<path opacity="0.7" d="M263.21 242.019L258.43 238.235" stroke="white" stroke-linecap="round" stroke-linejoin="round"/>
</g>
<path d="M260.306 248.967L247.181 234.159" stroke="#4987FA" stroke-linecap="round" stroke-linejoin="round"/>
<path d="M251.846 239.425L248.627 239.449" stroke="#4987FA" stroke-linecap="round" stroke-linejoin="round"/>
<path d="M254.044 241.842L253.407 236.601" stroke="#4987FA" stroke-linecap="round" stroke-linejoin="round"/>
<path d="M255.265 243.282L250.473 243.264" stroke="#4987FA" stroke-linecap="round" stroke-linejoin="round"/>
<path d="M256.978 245.152L257.531 240.445" stroke="#4987FA" stroke-linecap="round" stroke-linejoin="round"/>
<path d="M258.436 246.792L254.907 246.993" stroke="#4987FA" stroke-linecap="round" stroke-linejoin="round"/>
<g opacity="0.7">
<path opacity="0.7" d="M260.306 248.967L247.181 234.159" stroke="white" stroke-linecap="round" stroke-linejoin="round"/>
<path opacity="0.7" d="M251.846 239.425L248.627 239.45" stroke="white" stroke-linecap="round" stroke-linejoin="round"/>
<path opacity="0.7" d="M254.044 241.843L253.407 236.601" stroke="white" stroke-linecap="round" stroke-linejoin="round"/>
<path opacity="0.7" d="M255.265 243.282L250.473 243.264" stroke="white" stroke-linecap="round" stroke-linejoin="round"/>
<path opacity="0.7" d="M256.978 245.153L257.531 240.446" stroke="white" stroke-linecap="round" stroke-linejoin="round"/>
<path opacity="0.7" d="M258.436 246.793L254.907 246.993" stroke="white" stroke-linecap="round" stroke-linejoin="round"/>
</g>
<path d="M265.742 248.663L279.523 234.463" stroke="#4987FA" stroke-linecap="round" stroke-linejoin="round"/>
<path d="M274.622 239.51L274.361 236.303" stroke="#4987FA" stroke-linecap="round" stroke-linejoin="round"/>
<path d="M272.375 241.885L277.556 240.852" stroke="#4987FA" stroke-linecap="round" stroke-linejoin="round"/>
<path d="M271.033 243.209L270.692 238.429" stroke="#4987FA" stroke-linecap="round" stroke-linejoin="round"/>
<path d="M269.289 245.055L274.027 245.262" stroke="#4987FA" stroke-linecap="round" stroke-linejoin="round"/>
<path d="M267.765 246.628L267.303 243.13" stroke="#4987FA" stroke-linecap="round" stroke-linejoin="round"/>
<g opacity="0.7">
<path opacity="0.7" d="M265.742 248.663L279.523 234.463" stroke="white" stroke-linecap="round" stroke-linejoin="round"/>
<path opacity="0.7" d="M274.622 239.51L274.361 236.303" stroke="white" stroke-linecap="round" stroke-linejoin="round"/>
<path opacity="0.7" d="M272.375 241.885L277.556 240.852" stroke="white" stroke-linecap="round" stroke-linejoin="round"/>
<path opacity="0.7" d="M271.033 243.209L270.692 238.429" stroke="white" stroke-linecap="round" stroke-linejoin="round"/>
<path opacity="0.7" d="M269.289 245.055L274.027 245.262" stroke="white" stroke-linecap="round" stroke-linejoin="round"/>
<path opacity="0.7" d="M267.765 246.628L267.303 243.13" stroke="white" stroke-linecap="round" stroke-linejoin="round"/>
</g>
<path d="M18.1317 163.717C18.3321 156.131 17.749 143.194 24.3997 137.867C30.2425 133.191 34.7856 139.538 36.4194 144.658C40.3977 157.078 38.527 170.774 38.5209 183.596C38.5209 183.79 38.5209 183.985 38.5209 184.203C38.8368 193.642 39.9665 203.852 38.94 213.272C38.94 213.272 39.9482 203.833 47.3642 207.878C54.7801 211.923 43.6532 233.151 43.6532 233.151C43.6532 233.151 52.4174 226.749 56.4625 232.143C60.5075 237.536 51.4214 243.573 51.4214 243.573C51.4214 243.573 59.8455 241.217 59.8455 243.573C59.8455 245.93 57.1488 247.952 49.3988 248.967H7.60604C7.60604 248.967 0.864283 245.256 2.21263 241.217C3.56098 237.178 10.6368 239.528 10.6368 239.528C10.6368 239.528 -0.143946 226.385 0.530229 220.657C1.2044 214.93 15.022 221.672 15.022 221.672C15.022 221.672 4.23516 194.377 6.25768 182.266C7.84898 172.712 15.271 179.229 19.3039 182.922C18.3541 176.567 17.9619 170.14 18.1317 163.717Z" fill="#4987FA" stroke="white" stroke-linecap="round" stroke-linejoin="round"/>
<path opacity="0.5" d="M18.1317 163.717C18.3321 156.131 17.749 143.194 24.3997 137.867C30.2425 133.191 34.7856 139.538 36.4194 144.658C40.3977 157.078 38.527 170.774 38.5209 183.596C38.5209 183.79 38.5209 183.985 38.5209 184.203C38.8368 193.642 39.9665 203.852 38.94 213.272C38.94 213.272 39.9482 203.833 47.3642 207.878C54.7801 211.923 43.6532 233.151 43.6532 233.151C43.6532 233.151 52.4174 226.749 56.4625 232.143C60.5075 237.536 51.4214 243.573 51.4214 243.573C51.4214 243.573 59.8455 241.217 59.8455 243.573C59.8455 245.93 57.1488 247.952 49.3988 248.967H7.60604C7.60604 248.967 0.864283 245.256 2.21263 241.217C3.56098 237.178 10.6368 239.528 10.6368 239.528C10.6368 239.528 -0.143946 226.385 0.530229 220.657C1.2044 214.93 15.022 221.672 15.022 221.672C15.022 221.672 4.23516 194.377 6.25768 182.266C7.84898 172.712 15.271 179.229 19.3039 182.922C18.3541 176.567 17.9619 170.14 18.1317 163.717Z" fill="white"/>
<path d="M31.5301 248.627L28.4994 155.961" stroke="white" stroke-linecap="round" stroke-linejoin="round"/>
<path d="M29.8478 209.877L14.0077 195.051" stroke="white" stroke-linecap="round" stroke-linejoin="round"/>
<path d="M22.4318 203.135L19.0609 193.702" stroke="white" stroke-linecap="round" stroke-linejoin="round"/>
<path d="M42.985 221.332L30.856 234.475" stroke="white" stroke-linecap="round" stroke-linejoin="round"/>
<path d="M10.6368 228.747L30.856 239.194" stroke="white" stroke-linecap="round" stroke-linejoin="round"/>
<path d="M21.4236 234.809L14.0077 234.475" stroke="white" stroke-linecap="round" stroke-linejoin="round"/>
<path d="M31.5301 248.627L28.4994 155.961" stroke="#4987FA" stroke-linecap="round" stroke-linejoin="round"/>
<path d="M29.8478 209.877L14.0077 195.051" stroke="#4987FA" stroke-linecap="round" stroke-linejoin="round"/>
<path d="M22.4318 203.135L19.0609 193.702" stroke="#4987FA" stroke-linecap="round" stroke-linejoin="round"/>
<path d="M42.985 221.332L30.856 234.475" stroke="#4987FA" stroke-linecap="round" stroke-linejoin="round"/>
<path d="M10.6368 228.747L30.856 239.194" stroke="#4987FA" stroke-linecap="round" stroke-linejoin="round"/>
<path d="M21.4236 234.809L14.0077 234.475" stroke="#4987FA" stroke-linecap="round" stroke-linejoin="round"/>
<g opacity="0.8">
<path opacity="0.8" d="M31.5301 248.627L28.4994 155.961" stroke="white" stroke-linecap="round" stroke-linejoin="round"/>
<path opacity="0.8" d="M29.8478 209.877L14.0077 195.051" stroke="white" stroke-linecap="round" stroke-linejoin="round"/>
<path opacity="0.8" d="M22.4319 203.135L19.061 193.703" stroke="white" stroke-linecap="round" stroke-linejoin="round"/>
<path opacity="0.8" d="M42.9852 221.332L30.8561 234.475" stroke="white" stroke-linecap="round" stroke-linejoin="round"/>
<path opacity="0.8" d="M10.6368 228.747L30.856 239.194" stroke="white" stroke-linecap="round" stroke-linejoin="round"/>
<path opacity="0.8" d="M21.4236 234.809L14.0077 234.475" stroke="white" stroke-linecap="round" stroke-linejoin="round"/>
</g>
<path d="M90.6328 229.902C90.6328 239.322 83.1683 246.963 83.1683 246.963C83.1683 246.963 75.7159 239.322 75.7159 229.902C75.7159 220.481 83.1805 212.841 83.1805 212.841C83.1805 212.841 90.6328 220.475 90.6328 229.902Z" fill="#4987FA"/>
<path d="M95.8016 244.436C92.1574 248.524 85.9987 248.967 85.9987 248.967C85.9987 248.967 85.7011 242.778 89.3271 238.69C92.9531 234.603 99.13 234.159 99.13 234.159C99.13 234.159 99.4033 240.348 95.8016 244.436Z" fill="#4987FA"/>
<path d="M76.785 238.55C80.5871 242.468 80.5688 248.663 80.5688 248.663C80.5688 248.663 74.3798 248.499 70.5716 244.575C66.7634 240.652 66.7877 234.463 66.7877 234.463C66.7877 234.463 72.9768 234.627 76.785 238.55Z" fill="#4987FA"/>
<g opacity="0.5">
<path opacity="0.5" d="M90.6328 229.902C90.6328 239.322 83.1683 246.963 83.1683 246.963C83.1683 246.963 75.7159 239.322 75.7159 229.902C75.7159 220.481 83.1805 212.841 83.1805 212.841C83.1805 212.841 90.6328 220.475 90.6328 229.902Z" fill="white"/>
<path opacity="0.5" d="M83.1683 246.963V212.841" stroke="white" stroke-linecap="round" stroke-linejoin="round"/>
<path opacity="0.5" d="M83.1683 224.97L87.347 221.32" stroke="white" stroke-linecap="round" stroke-linejoin="round"/>
<path opacity="0.5" d="M83.1015 230.606L77.9268 223.111" stroke="white" stroke-linecap="round" stroke-linejoin="round"/>
<path opacity="0.5" d="M83.1683 233.856L89.3392 228.353" stroke="white" stroke-linecap="round" stroke-linejoin="round"/>
<path opacity="0.5" d="M83.1016 238.235L76.9976 232.799" stroke="white" stroke-linecap="round" stroke-linejoin="round"/>
<path opacity="0.5" d="M83.1016 242.019L87.8755 238.235" stroke="white" stroke-linecap="round" stroke-linejoin="round"/>
<path opacity="0.5" d="M95.8016 244.436C92.1574 248.523 85.9987 248.967 85.9987 248.967C85.9987 248.967 85.7011 242.778 89.3271 238.69C92.9531 234.603 99.13 234.159 99.13 234.159C99.13 234.159 99.4033 240.348 95.8016 244.436Z" fill="white"/>
<path opacity="0.5" d="M85.9987 248.967L99.1299 234.159" stroke="white" stroke-linecap="round" stroke-linejoin="round"/>
<path opacity="0.5" d="M94.4653 239.425L97.6783 239.45" stroke="white" stroke-linecap="round" stroke-linejoin="round"/>
<path opacity="0.5" d="M92.2667 241.842L92.9045 236.601" stroke="white" stroke-linecap="round" stroke-linejoin="round"/>
<path opacity="0.5" d="M91.0398 243.282L95.838 243.264" stroke="white" stroke-linecap="round" stroke-linejoin="round"/>
<path opacity="0.5" d="M89.327 245.152L88.7743 240.445" stroke="white" stroke-linecap="round" stroke-linejoin="round"/>
<path opacity="0.5" d="M87.8755 246.792L91.4043 246.993" stroke="white" stroke-linecap="round" stroke-linejoin="round"/>
<path opacity="0.5" d="M76.785 238.551C80.5871 242.468 80.5688 248.663 80.5688 248.663C80.5688 248.663 74.3798 248.499 70.5716 244.576C66.7634 240.652 66.7877 234.463 66.7877 234.463C66.7877 234.463 72.9768 234.627 76.785 238.551Z" fill="white"/>
<path opacity="0.5" d="M80.5688 248.663L66.7877 234.463" stroke="white" stroke-linecap="round" stroke-linejoin="round"/>
<path opacity="0.5" d="M71.6831 239.51L71.9503 236.303" stroke="white" stroke-linecap="round" stroke-linejoin="round"/>
<path opacity="0.5" d="M73.9363 241.885L68.7555 240.853" stroke="white" stroke-linecap="round" stroke-linejoin="round"/>
<path opacity="0.5" d="M75.2726 243.209L75.6188 238.429" stroke="white" stroke-linecap="round" stroke-linejoin="round"/>
<path opacity="0.5" d="M77.0158 245.055L72.2783 245.262" stroke="white" stroke-linecap="round" stroke-linejoin="round"/>
<path opacity="0.5" d="M78.5464 246.629L79.0019 243.13" stroke="white" stroke-linecap="round" stroke-linejoin="round"/>
</g>
<path d="M83.1683 246.963V212.841" stroke="#4987FA" stroke-linecap="round" stroke-linejoin="round"/>
<path d="M83.1683 224.969L87.347 221.319" stroke="#4987FA" stroke-linecap="round" stroke-linejoin="round"/>
<path d="M83.1015 230.606L77.9268 223.111" stroke="#4987FA" stroke-linecap="round" stroke-linejoin="round"/>
<path d="M83.1683 233.855L89.3392 228.353" stroke="#4987FA" stroke-linecap="round" stroke-linejoin="round"/>
<path d="M83.1016 238.235L76.9976 232.799" stroke="#4987FA" stroke-linecap="round" stroke-linejoin="round"/>
<path d="M83.1016 242.018L87.8755 238.235" stroke="#4987FA" stroke-linecap="round" stroke-linejoin="round"/>
<g opacity="0.7">
<path opacity="0.7" d="M83.1682 246.963V212.841" stroke="white" stroke-linecap="round" stroke-linejoin="round"/>
<path opacity="0.7" d="M83.1683 224.97L87.347 221.32" stroke="white" stroke-linecap="round" stroke-linejoin="round"/>
<path opacity="0.7" d="M83.1015 230.606L77.9268 223.111" stroke="white" stroke-linecap="round" stroke-linejoin="round"/>
<path opacity="0.7" d="M83.1683 233.856L89.3392 228.353" stroke="white" stroke-linecap="round" stroke-linejoin="round"/>
<path opacity="0.7" d="M83.1015 238.235L76.9974 232.799" stroke="white" stroke-linecap="round" stroke-linejoin="round"/>
<path opacity="0.7" d="M83.1014 242.019L87.8753 238.235" stroke="white" stroke-linecap="round" stroke-linejoin="round"/>
</g>
<path d="M85.9987 248.967L99.1299 234.159" stroke="#4987FA" stroke-linecap="round" stroke-linejoin="round"/>
<path d="M94.4653 239.425L97.6783 239.449" stroke="#4987FA" stroke-linecap="round" stroke-linejoin="round"/>
<path d="M92.2667 241.842L92.9045 236.601" stroke="#4987FA" stroke-linecap="round" stroke-linejoin="round"/>
<path d="M91.0398 243.282L95.838 243.264" stroke="#4987FA" stroke-linecap="round" stroke-linejoin="round"/>
<path d="M89.327 245.152L88.7743 240.445" stroke="#4987FA" stroke-linecap="round" stroke-linejoin="round"/>
<path d="M87.8755 246.792L91.4043 246.993" stroke="#4987FA" stroke-linecap="round" stroke-linejoin="round"/>
<g opacity="0.7">
<path opacity="0.7" d="M85.9987 248.967L99.1299 234.159" stroke="white" stroke-linecap="round" stroke-linejoin="round"/>
<path opacity="0.7" d="M94.4653 239.425L97.6783 239.45" stroke="white" stroke-linecap="round" stroke-linejoin="round"/>
<path opacity="0.7" d="M92.2667 241.843L92.9045 236.601" stroke="white" stroke-linecap="round" stroke-linejoin="round"/>
<path opacity="0.7" d="M91.0398 243.282L95.838 243.264" stroke="white" stroke-linecap="round" stroke-linejoin="round"/>
<path opacity="0.7" d="M89.327 245.153L88.7743 240.446" stroke="white" stroke-linecap="round" stroke-linejoin="round"/>
<path opacity="0.7" d="M87.8754 246.793L91.4042 246.993" stroke="white" stroke-linecap="round" stroke-linejoin="round"/>
</g>
<path d="M80.5688 248.663L66.7877 234.463" stroke="#4987FA" stroke-linecap="round" stroke-linejoin="round"/>
<path d="M71.6831 239.51L71.9503 236.303" stroke="#4987FA" stroke-linecap="round" stroke-linejoin="round"/>
<path d="M73.9364 241.885L68.7556 240.852" stroke="#4987FA" stroke-linecap="round" stroke-linejoin="round"/>
<path d="M75.2726 243.209L75.6188 238.429" stroke="#4987FA" stroke-linecap="round" stroke-linejoin="round"/>
<path d="M77.0158 245.055L72.2783 245.262" stroke="#4987FA" stroke-linecap="round" stroke-linejoin="round"/>
<path d="M78.5463 246.628L79.0018 243.13" stroke="#4987FA" stroke-linecap="round" stroke-linejoin="round"/>
<g opacity="0.7">
<path opacity="0.7" d="M80.5688 248.663L66.7877 234.463" stroke="white" stroke-linecap="round" stroke-linejoin="round"/>
<path opacity="0.7" d="M71.6831 239.51L71.9503 236.303" stroke="white" stroke-linecap="round" stroke-linejoin="round"/>
<path opacity="0.7" d="M73.9363 241.885L68.7555 240.852" stroke="white" stroke-linecap="round" stroke-linejoin="round"/>
<path opacity="0.7" d="M75.2726 243.209L75.6188 238.429" stroke="white" stroke-linecap="round" stroke-linejoin="round"/>
<path opacity="0.7" d="M77.0158 245.055L72.2783 245.262" stroke="white" stroke-linecap="round" stroke-linejoin="round"/>
<path opacity="0.7" d="M78.5464 246.628L79.0019 243.13" stroke="white" stroke-linecap="round" stroke-linejoin="round"/>
</g>
<path d="M258.764 68.4578H94.5747C94.5255 68.4586 94.4767 68.4496 94.431 68.4314C94.3854 68.4131 94.3438 68.386 94.3088 68.3515C94.2737 68.317 94.2459 68.2759 94.2269 68.2305C94.2079 68.1852 94.1981 68.1365 94.1981 68.0873C94.1981 67.9874 94.2378 67.8917 94.3084 67.821C94.379 67.7504 94.4748 67.7108 94.5747 67.7108H258.764C258.813 67.7107 258.862 67.7205 258.907 67.7395C258.952 67.7585 258.993 67.7864 259.028 67.8214C259.062 67.8565 259.09 67.898 259.108 67.9437C259.126 67.9893 259.135 68.0382 259.134 68.0873C259.134 68.1856 259.095 68.2798 259.026 68.3493C258.956 68.4188 258.862 68.4578 258.764 68.4578Z" fill="#4987FA"/>
<g opacity="0.3">
<path opacity="0.3" d="M258.764 68.4578H94.5747C94.5255 68.4586 94.4767 68.4496 94.431 68.4314C94.3854 68.4131 94.3438 68.386 94.3088 68.3515C94.2737 68.317 94.2459 68.2759 94.2269 68.2305C94.2079 68.1852 94.1981 68.1365 94.1981 68.0873C94.1981 67.9874 94.2378 67.8917 94.3084 67.821C94.379 67.7504 94.4748 67.7108 94.5747 67.7108H258.764C258.813 67.7107 258.862 67.7205 258.907 67.7395C258.952 67.7585 258.993 67.7864 259.028 67.8214C259.062 67.8565 259.09 67.898 259.108 67.9437C259.126 67.9893 259.135 68.0382 259.134 68.0873C259.134 68.1856 259.095 68.2798 259.026 68.3493C258.956 68.4188 258.862 68.4578 258.764 68.4578Z" fill="white"/>
</g>
<path d="M258.436 133.579H94.2467C94.1975 133.58 94.1487 133.571 94.103 133.553C94.0574 133.535 94.0158 133.507 93.9808 133.473C93.9457 133.438 93.9179 133.397 93.8989 133.352C93.8799 133.307 93.8701 133.258 93.8701 133.209C93.8701 133.109 93.9098 133.013 93.9804 132.942C94.051 132.872 94.1468 132.832 94.2467 132.832H258.436C258.485 132.832 258.534 132.842 258.579 132.861C258.624 132.88 258.665 132.908 258.7 132.943C258.734 132.978 258.762 133.019 258.78 133.065C258.798 133.111 258.807 133.16 258.806 133.209C258.806 133.257 258.797 133.306 258.778 133.351C258.759 133.395 258.732 133.436 258.698 133.471C258.663 133.505 258.622 133.532 258.578 133.551C258.533 133.57 258.484 133.579 258.436 133.579Z" fill="#4987FA"/>
<g opacity="0.3">
<path opacity="0.3" d="M258.436 133.579H94.2467C94.1975 133.58 94.1487 133.571 94.103 133.553C94.0574 133.535 94.0158 133.507 93.9808 133.473C93.9457 133.439 93.9179 133.397 93.8989 133.352C93.8799 133.307 93.8701 133.258 93.8701 133.209C93.8701 133.109 93.9098 133.013 93.9804 132.943C94.051 132.872 94.1468 132.832 94.2467 132.832H258.436C258.485 132.832 258.534 132.842 258.579 132.861C258.624 132.88 258.665 132.908 258.7 132.943C258.734 132.978 258.762 133.02 258.78 133.065C258.798 133.111 258.807 133.16 258.806 133.209C258.806 133.258 258.797 133.306 258.778 133.351C258.759 133.396 258.732 133.436 258.698 133.471C258.663 133.505 258.622 133.533 258.578 133.551C258.533 133.57 258.484 133.579 258.436 133.579Z" fill="white"/>
</g>
<path d="M258.436 186.815H94.2467C94.1468 186.815 94.051 186.775 93.9804 186.705C93.9098 186.634 93.8701 186.538 93.8701 186.438C93.8701 186.389 93.8799 186.341 93.8989 186.295C93.9179 186.25 93.9457 186.209 93.9808 186.174C94.0158 186.14 94.0574 186.113 94.103 186.094C94.1487 186.076 94.1975 186.067 94.2467 186.068H258.436C258.484 186.068 258.533 186.078 258.578 186.096C258.622 186.115 258.663 186.142 258.698 186.176C258.732 186.211 258.759 186.252 258.778 186.297C258.797 186.342 258.806 186.39 258.806 186.438C258.807 186.488 258.798 186.536 258.78 186.582C258.762 186.628 258.734 186.669 258.7 186.704C258.665 186.739 258.624 186.767 258.579 186.786C258.534 186.805 258.485 186.815 258.436 186.815Z" fill="#4987FA"/>
<g opacity="0.3">
<path opacity="0.3" d="M258.436 186.815H94.2467C94.1468 186.815 94.051 186.775 93.9804 186.705C93.9098 186.634 93.8701 186.538 93.8701 186.438C93.8701 186.389 93.8799 186.34 93.8989 186.295C93.9179 186.25 93.9457 186.209 93.9808 186.174C94.0158 186.14 94.0574 186.112 94.103 186.094C94.1487 186.076 94.1975 186.067 94.2467 186.068H258.436C258.484 186.068 258.533 186.077 258.578 186.096C258.622 186.115 258.663 186.142 258.698 186.176C258.732 186.211 258.759 186.251 258.778 186.296C258.797 186.341 258.806 186.39 258.806 186.438C258.807 186.487 258.798 186.536 258.78 186.582C258.762 186.628 258.734 186.669 258.7 186.704C258.665 186.739 258.624 186.767 258.579 186.786C258.534 186.805 258.485 186.815 258.436 186.815Z" fill="white"/>
</g>
<path d="M129.152 195.822V251.226" stroke="#263238" stroke-width="0.265171" stroke-miterlimit="10"/>
<path d="M137.066 195.822V251.226" stroke="#263238" stroke-width="0.265171" stroke-miterlimit="10"/>
<path d="M144.98 195.822V251.226" stroke="#263238" stroke-width="0.265171" stroke-miterlimit="10"/>
<path d="M152.894 195.822V251.226" stroke="#263238" stroke-width="0.265171" stroke-miterlimit="10"/>
<path d="M160.808 195.822V251.226" stroke="#263238" stroke-width="0.265171" stroke-miterlimit="10"/>
<path d="M168.722 195.822V251.226" stroke="#263238" stroke-width="0.265171" stroke-miterlimit="10"/>
<path d="M176.636 195.822V251.226" stroke="#263238" stroke-width="0.265171" stroke-miterlimit="10"/>
<path d="M184.55 195.822V251.226" stroke="#263238" stroke-width="0.265171" stroke-miterlimit="10"/>
<path d="M192.464 195.822V251.226" stroke="#263238" stroke-width="0.265171" stroke-miterlimit="10"/>
<path d="M200.378 195.822V251.226" stroke="#263238" stroke-width="0.265171" stroke-miterlimit="10"/>
<path d="M208.292 195.822V251.226" stroke="#263238" stroke-width="0.265171" stroke-miterlimit="10"/>
<path d="M216.206 195.822V251.226" stroke="#263238" stroke-width="0.265171" stroke-miterlimit="10"/>
<path d="M129.547 200.967H215.811" stroke="#263238" stroke-width="0.265171" stroke-miterlimit="10"/>
<path d="M129.547 208.486H215.811" stroke="#263238" stroke-width="0.265171" stroke-miterlimit="10"/>
<path d="M129.547 216.005H215.811" stroke="#263238" stroke-width="0.265171" stroke-miterlimit="10"/>
<path d="M129.547 223.524H215.811" stroke="#263238" stroke-width="0.265171" stroke-miterlimit="10"/>
<path d="M129.547 231.043H215.811" stroke="#263238" stroke-width="0.265171" stroke-miterlimit="10"/>
<path d="M129.547 238.563H215.811" stroke="#263238" stroke-width="0.265171" stroke-miterlimit="10"/>
<path d="M129.547 246.082H215.811" stroke="#263238" stroke-width="0.265171" stroke-miterlimit="10"/>
<path d="M147.67 215.258L136.094 250.947H160.34L148.758 215.258C148.721 215.143 148.648 215.042 148.55 214.971C148.453 214.9 148.335 214.861 148.214 214.861C148.093 214.861 147.975 214.9 147.878 214.971C147.78 215.042 147.707 215.143 147.67 215.258Z" fill="#4987FA" stroke="#263238" stroke-width="1.06068" stroke-miterlimit="10"/>
<path d="M169.742 203.439L154.333 250.947H186.256L170.829 203.439C170.792 203.324 170.72 203.223 170.622 203.152C170.525 203.081 170.407 203.042 170.286 203.042C170.165 203.042 170.047 203.081 169.949 203.152C169.852 203.223 169.779 203.324 169.742 203.439Z" fill="#263238" stroke="#263238" stroke-width="1.06068" stroke-miterlimit="10"/>
<path d="M190.053 223.421L181.118 250.947H200.068L191.115 223.421C191.073 223.314 191 223.222 190.906 223.158C190.811 223.093 190.699 223.059 190.584 223.059C190.469 223.059 190.357 223.093 190.262 223.158C190.168 223.222 190.094 223.314 190.053 223.421Z" fill="#4987FA" stroke="#263238" stroke-width="1.06068" stroke-miterlimit="10"/>
<path d="M202.291 232.871L196.43 250.946H209.239L203.378 232.871C203.341 232.756 203.269 232.656 203.171 232.584C203.073 232.513 202.955 232.475 202.834 232.475C202.714 232.475 202.596 232.513 202.498 232.584C202.4 232.656 202.328 232.756 202.291 232.871Z" fill="#263238" stroke="#263238" stroke-width="1.06068" stroke-miterlimit="10"/>
<path d="M128.107 178.312C124.634 178.312 121.24 177.282 118.352 175.353C115.465 173.423 113.214 170.681 111.885 167.472C110.556 164.264 110.208 160.733 110.886 157.327C111.563 153.921 113.236 150.792 115.691 148.337C118.147 145.881 121.276 144.209 124.682 143.531C128.088 142.854 131.618 143.201 134.827 144.53C138.035 145.859 140.778 148.11 142.707 150.998C144.636 153.885 145.666 157.28 145.666 160.753C145.661 165.408 143.81 169.872 140.518 173.164C137.226 176.455 132.763 178.307 128.107 178.312ZM128.107 148.35C125.655 148.352 123.257 149.08 121.219 150.444C119.18 151.807 117.591 153.744 116.653 156.011C115.716 158.277 115.471 160.771 115.95 163.176C116.429 165.582 117.611 167.791 119.346 169.525C121.08 171.259 123.29 172.439 125.696 172.917C128.102 173.395 130.595 173.149 132.861 172.211C135.127 171.272 137.063 169.682 138.426 167.643C139.789 165.603 140.516 163.206 140.516 160.753C140.513 157.463 139.204 154.31 136.877 151.984C134.551 149.659 131.397 148.352 128.107 148.35Z" fill="#263238" stroke="#263238" stroke-width="1.06068" stroke-miterlimit="10"/>
<path d="M128.107 178.312C125.738 178.319 123.391 177.843 121.212 176.912C119.032 175.982 117.065 174.617 115.432 172.9L119.155 169.335C120.308 170.548 121.697 171.512 123.237 172.169C124.776 172.826 126.434 173.161 128.107 173.155C129.736 173.155 131.349 172.834 132.854 172.211C134.358 171.588 135.726 170.674 136.877 169.523C138.029 168.371 138.942 167.004 139.566 165.499C140.189 163.994 140.51 162.381 140.51 160.753C140.51 159.124 140.189 157.511 139.566 156.007C138.942 154.502 138.029 153.135 136.877 151.983C135.726 150.831 134.358 149.918 132.854 149.294C131.349 148.671 129.736 148.35 128.107 148.35V143.194C130.413 143.194 132.697 143.648 134.827 144.53C136.957 145.413 138.893 146.706 140.523 148.337C142.154 149.967 143.447 151.903 144.33 154.033C145.212 156.164 145.666 158.447 145.666 160.753C145.666 163.059 145.212 165.342 144.33 167.472C143.447 169.603 142.154 171.538 140.523 173.169C138.893 174.799 136.957 176.093 134.827 176.975C132.697 177.858 130.413 178.312 128.107 178.312Z" fill="#4987FA" stroke="#263238" stroke-width="1.06068" stroke-miterlimit="10"/>
<path d="M171.412 178.312C167.939 178.313 164.544 177.284 161.656 175.355C158.767 173.427 156.516 170.685 155.186 167.476C153.856 164.268 153.507 160.737 154.184 157.331C154.861 153.924 156.533 150.795 158.988 148.339C161.444 145.883 164.572 144.21 167.979 143.532C171.385 142.854 174.916 143.201 178.124 144.53C181.333 145.859 184.076 148.109 186.006 150.997C187.935 153.885 188.965 157.28 188.965 160.753C188.96 165.407 187.11 169.87 183.819 173.161C180.529 176.453 176.067 178.305 171.412 178.312ZM171.412 148.35C168.96 148.353 166.563 149.082 164.525 150.446C162.487 151.811 160.9 153.749 159.963 156.015C159.026 158.281 158.782 160.775 159.262 163.18C159.742 165.585 160.924 167.794 162.659 169.527C164.394 171.26 166.604 172.44 169.009 172.918C171.415 173.395 173.908 173.149 176.174 172.21C178.439 171.271 180.375 169.681 181.738 167.642C183.1 165.603 183.827 163.205 183.827 160.753C183.822 157.463 182.512 154.309 180.185 151.984C177.857 149.659 174.702 148.352 171.412 148.35Z" fill="#263238" stroke="#263238" stroke-width="1.06068" stroke-miterlimit="10"/>
<path d="M178.245 176.927L176.241 172.183C178.875 171.067 181.042 169.075 182.376 166.544C183.71 164.013 184.128 161.099 183.56 158.295C182.992 155.491 181.472 152.97 179.259 151.157C177.045 149.345 174.273 148.354 171.412 148.35V143.194C175.464 143.194 179.39 144.596 182.527 147.161C185.663 149.726 187.816 153.296 188.62 157.267C189.424 161.238 188.831 165.365 186.94 168.948C185.049 172.531 181.977 175.35 178.245 176.927Z" fill="#4987FA" stroke="#263238" stroke-width="1.06068" stroke-miterlimit="10"/>
<path d="M214.712 178.312C211.239 178.312 207.844 177.282 204.956 175.353C202.069 173.423 199.818 170.681 198.489 167.472C197.16 164.264 196.812 160.733 197.49 157.327C198.167 153.921 199.84 150.792 202.295 148.337C204.751 145.881 207.88 144.209 211.286 143.531C214.692 142.854 218.223 143.201 221.431 144.53C224.64 145.859 227.382 148.11 229.311 150.998C231.241 153.885 232.27 157.28 232.27 160.753C232.266 165.408 230.414 169.872 227.122 173.163C223.83 176.455 219.367 178.307 214.712 178.312ZM214.712 148.35C212.259 148.35 209.861 149.078 207.821 150.441C205.782 151.803 204.192 153.74 203.253 156.007C202.314 158.273 202.069 160.767 202.547 163.172C203.026 165.578 204.207 167.788 205.942 169.523C207.676 171.257 209.886 172.438 212.292 172.917C214.698 173.395 217.191 173.15 219.458 172.211C221.724 171.272 223.661 169.683 225.024 167.643C226.387 165.604 227.114 163.206 227.114 160.753C227.111 157.464 225.803 154.312 223.478 151.987C221.153 149.661 218 148.354 214.712 148.35Z" fill="#263238" stroke="#263238" stroke-width="1.06068" stroke-miterlimit="10"/>
<path d="M226.871 158.281C226.295 155.482 224.773 152.967 222.56 151.159C220.348 149.35 217.581 148.359 214.724 148.35V143.194C218.77 143.204 222.69 144.608 225.824 147.168C228.958 149.729 231.114 153.291 231.93 157.254L226.871 158.281Z" fill="#4987FA" stroke="#263238" stroke-width="1.06068" stroke-miterlimit="10"/>
<path d="M135.11 123.752H217.572" stroke="#263238" stroke-width="1.06068" stroke-miterlimit="10"/>
<path d="M135.11 123.752V121.997" stroke="#263238" stroke-width="1.06068" stroke-miterlimit="10"/>
<path d="M151.6 123.752V121.997" stroke="#263238" stroke-width="1.06068" stroke-miterlimit="10"/>
<path d="M168.096 123.752V121.997" stroke="#263238" stroke-width="1.06068" stroke-miterlimit="10"/>
<path d="M184.586 123.752V121.997" stroke="#263238" stroke-width="1.06068" stroke-miterlimit="10"/>
<path d="M201.076 123.752V121.997" stroke="#263238" stroke-width="1.06068" stroke-miterlimit="10"/>
<path d="M217.572 123.752V121.997" stroke="#263238" stroke-width="1.06068" stroke-miterlimit="10"/>
<path d="M149.292 100.314H137.418V114.374H149.292V100.314Z" fill="#4987FA" stroke="#263238" stroke-width="1.06068" stroke-miterlimit="10"/>
<path d="M165.782 83.909H153.908V116.719H165.782V83.909Z" fill="#4987FA" stroke="#263238" stroke-width="1.06068" stroke-miterlimit="10"/>
<path d="M182.278 60.9447H170.404V97.5081H182.278V60.9447Z" fill="#4987FA" stroke="#263238" stroke-width="1.06068" stroke-miterlimit="10"/>
<path d="M198.768 95.1634H186.894V102.197H198.768V95.1634Z" fill="#4987FA" stroke="#263238" stroke-width="1.06068" stroke-miterlimit="10"/>
<path d="M215.258 90.9422H203.384V109.224H215.258V90.9422Z" fill="#4987FA" stroke="#263238" stroke-width="1.06068" stroke-miterlimit="10"/>
<path d="M149.292 114.38H137.418V123.758H149.292V114.38Z" fill="#263238" stroke="#263238" stroke-width="1.06068" stroke-miterlimit="10"/>
<path d="M165.782 116.725H153.908V123.758H165.782V116.725Z" fill="#263238" stroke="#263238" stroke-width="1.06068" stroke-miterlimit="10"/>
<path d="M182.278 97.5018H170.404V123.752H182.278V97.5018Z" fill="#263238" stroke="#263238" stroke-width="1.06068" stroke-miterlimit="10"/>
<path d="M198.768 102.191H186.894V123.752H198.768V102.191Z" fill="#263238" stroke="#263238" stroke-width="1.06068" stroke-miterlimit="10"/>
<path d="M215.258 109.224H203.384V123.752H215.258V109.224Z" fill="#263238" stroke="#263238" stroke-width="1.06068" stroke-miterlimit="10"/>
<path d="M239.547 54.306C239.404 54.307 239.263 54.2725 239.137 54.2058C239.011 54.139 238.903 54.0419 238.824 53.9233L213.278 16.6675L187.362 44.3027L160.899 27.0535L135.299 32.9935L109.297 54.1116C109.117 54.2582 108.886 54.3271 108.654 54.3032C108.423 54.2793 108.211 54.1645 108.064 53.9841C107.918 53.8036 107.849 53.5724 107.873 53.3412C107.897 53.1099 108.011 52.8977 108.192 52.7511L134.509 31.3779L161.233 25.1767L187.095 42.0372L213.497 13.8797L240.269 52.9333C240.36 53.0644 240.413 53.2178 240.423 53.3769C240.433 53.536 240.4 53.6948 240.326 53.8362C240.252 53.9775 240.141 54.096 240.005 54.1788C239.868 54.2616 239.712 54.3056 239.553 54.306H239.547Z" fill="#263238"/>
<path d="M110.943 53.4313C110.943 53.8602 110.816 54.2794 110.578 54.636C110.339 54.9925 110.001 55.2705 109.605 55.4346C109.208 55.5987 108.772 55.6416 108.352 55.558C107.931 55.4743 107.545 55.2678 107.242 54.9645C106.938 54.6613 106.732 54.275 106.648 53.8543C106.565 53.4337 106.608 52.9978 106.772 52.6016C106.936 52.2054 107.214 51.8667 107.57 51.6285C107.927 51.3902 108.346 51.263 108.775 51.263C109.35 51.263 109.901 51.4915 110.308 51.8981C110.715 52.3047 110.943 52.8563 110.943 53.4313Z" fill="#4987FA"/>
<path d="M134.904 34.354C136.101 34.354 137.072 33.3832 137.072 32.1857C137.072 30.9881 136.101 30.0174 134.904 30.0174C133.706 30.0174 132.735 30.9881 132.735 32.1857C132.735 33.3832 133.706 34.354 134.904 34.354Z" fill="#4987FA"/>
<path d="M161.063 28.2805C162.26 28.2805 163.231 27.3097 163.231 26.1122C163.231 24.9147 162.26 23.9439 161.063 23.9439C159.865 23.9439 158.895 24.9147 158.895 26.1122C158.895 27.3097 159.865 28.2805 161.063 28.2805Z" fill="#4987FA"/>
<path d="M187.222 45.3351C188.42 45.3351 189.39 44.3643 189.39 43.1668C189.39 41.9693 188.42 40.9985 187.222 40.9985C186.025 40.9985 185.054 41.9693 185.054 43.1668C185.054 44.3643 186.025 45.3351 187.222 45.3351Z" fill="#4987FA"/>
<path d="M215.55 15.2767C215.55 15.7055 215.423 16.1248 215.184 16.4813C214.946 16.8379 214.607 17.1158 214.211 17.2799C213.815 17.4441 213.379 17.487 212.958 17.4033C212.538 17.3197 212.151 17.1132 211.848 16.8099C211.545 16.5067 211.338 16.1203 211.255 15.6997C211.171 15.2791 211.214 14.8431 211.378 14.4469C211.542 14.0507 211.82 13.7121 212.177 13.4738C212.533 13.2356 212.953 13.1084 213.381 13.1084C213.956 13.1084 214.508 13.3368 214.915 13.7435C215.321 14.1501 215.55 14.7016 215.55 15.2767Z" fill="#4987FA"/>
<path d="M241.709 53.4313C241.709 53.8602 241.582 54.2794 241.343 54.636C241.105 54.9925 240.767 55.2705 240.37 55.4346C239.974 55.5987 239.538 55.6416 239.118 55.558C238.697 55.4743 238.311 55.2678 238.007 54.9645C237.704 54.6613 237.498 54.275 237.414 53.8543C237.33 53.4337 237.373 52.9978 237.537 52.6016C237.701 52.2054 237.979 51.8667 238.336 51.6285C238.693 51.3902 239.112 51.263 239.541 51.263C240.116 51.263 240.667 51.4915 241.074 51.8981C241.48 52.3047 241.709 52.8563 241.709 53.4313Z" fill="#4987FA"/>
<path d="M286.302 260.094C309.454 260.094 328.222 257.573 328.222 254.463C328.222 251.354 309.454 248.833 286.302 248.833C263.15 248.833 244.381 251.354 244.381 254.463C244.381 257.573 263.15 260.094 286.302 260.094Z" fill="#4987FA"/>
<path opacity="0.7" d="M286.302 260.094C309.454 260.094 328.222 257.573 328.222 254.463C328.222 251.354 309.454 248.833 286.302 248.833C263.15 248.833 244.381 251.354 244.381 254.463C244.381 257.573 263.15 260.094 286.302 260.094Z" fill="white"/>
<path d="M56.6326 260.094C77.9966 260.094 95.3157 257.573 95.3157 254.463C95.3157 251.354 77.9966 248.833 56.6326 248.833C35.2685 248.833 17.9495 251.354 17.9495 254.463C17.9495 257.573 35.2685 260.094 56.6326 260.094Z" fill="#4987FA"/>
<path opacity="0.7" d="M56.6326 260.094C77.9966 260.094 95.3157 257.573 95.3157 254.463C95.3157 251.354 77.9966 248.833 56.6326 248.833C35.2685 248.833 17.9495 251.354 17.9495 254.463C17.9495 257.573 35.2685 260.094 56.6326 260.094Z" fill="white"/>
<path d="M274.47 56.116C274.47 56.116 290.395 54.5733 291.306 57.2275C292.217 59.8817 291.914 65.9432 291.914 65.9432C292.716 66.1517 293.498 66.4302 294.252 66.7753C294.465 66.9818 296.821 68.5245 294.622 71.0572C294.048 71.6994 293.353 72.2217 292.576 72.5938C291.606 73.023 290.684 73.5523 289.824 74.173L286.63 77.7989L287.237 82.4696C287.237 82.4696 288.664 83.5021 290.407 87.1038C290.407 87.1038 294.525 89.5332 296.943 90.912C298.93 91.9564 300.998 92.8419 303.126 93.5601C303.126 93.5601 304.231 93.9184 304.152 94.7141C304.073 95.5097 298.649 113.542 298.649 113.542L295.795 122.653C295.74 123.772 295.594 124.886 295.357 125.981C294.95 127.943 293.42 129.231 291.835 128.83L291.993 135.511C291.993 135.511 284.546 139.234 272.265 138.602C272.265 138.602 266.483 138.044 262.207 134.879L262.128 119.27L242.425 115.456C242.425 115.456 239.929 114.927 241.211 112.68C242.492 110.433 246.799 104.857 246.799 104.857L260.64 87.9237C260.64 87.9237 261.594 86.8001 261.946 86.4417C262.298 86.0834 263.161 85.8344 266.58 85.5489C270 85.2635 273.832 84.6014 273.832 84.6014C273.832 84.6014 275.91 82.8158 276.207 82.8158C276.505 82.8158 276.565 80.1434 276.565 80.1434C275.515 79.3854 274.641 78.4086 274.005 77.2803C273.369 76.1521 272.984 74.8992 272.879 73.6081C272.581 69.2715 274.482 59.1103 274.482 59.1103L274.47 56.116Z" fill="white"/>
<path d="M262.45 134.818C262.45 134.818 260.774 159.72 260.774 171.637C260.774 183.553 261.521 193.204 261.892 201.574C262.262 209.943 260.774 215.707 262.074 221.842C263.374 227.976 266.356 245.833 266.356 245.833L269.86 247.946C269.86 247.946 270.468 233.74 271.743 228.723C273.019 223.706 273.419 202.503 274.173 195.992C274.926 189.481 277.337 166.426 277.337 166.426C277.337 166.426 286.636 190.599 288.877 200.086C291.118 209.573 298.734 230.952 300.417 236.157C302.099 241.362 304.693 249.076 304.693 249.076C305.481 249.306 306.308 249.368 307.122 249.258C307.474 249.23 307.812 249.113 308.105 248.917C308.399 248.721 308.637 248.454 308.798 248.141C308.798 248.141 306.326 232.568 305.239 225C303.897 215.641 301.71 201.574 300.38 196.369C299.05 191.164 297.034 182.976 297.034 179.071C297.034 175.166 292.017 135.948 292.017 135.948C292.017 135.948 274.537 143.558 262.45 134.818Z" fill="#263238"/>
<path d="M277.325 166.426L269.866 157.729" stroke="white" stroke-width="0.530341" stroke-miterlimit="10" stroke-linecap="round"/>
<path d="M267.959 158.366L274.1 164.081" stroke="white" stroke-width="0.530341" stroke-miterlimit="10" stroke-linecap="round"/>
<path d="M281.084 159.004C282.657 155.026 285.579 151.727 289.338 149.687" stroke="white" stroke-width="0.530341" stroke-miterlimit="10" stroke-linecap="round"/>
<path d="M289.758 138.05C289.758 138.05 288.913 141.22 289.97 143.127C291.027 145.035 292.09 145.035 292.09 145.035C292.09 145.035 293.991 155.402 293.991 161.33C293.991 167.258 292.722 167.89 293.991 174.449C295.26 181.009 296.111 183.129 296.111 186.937C296.111 190.745 297.799 193.29 299.281 195.616C300.763 197.942 301.188 204.726 301.188 207.466C301.188 210.205 302.032 213.181 302.883 215.932C302.883 215.932 303.083 222.103 304.152 223.549C305.221 224.994 305.422 229.902 305.422 229.902" stroke="white" stroke-width="0.530341" stroke-miterlimit="10" stroke-linecap="round"/>
<path d="M275.794 165.564C275.794 165.564 276.213 170.422 274.731 178.895C273.249 187.368 272.193 189.688 271.98 199.424C271.767 209.16 272.618 210.855 272.193 215.932C271.767 221.01 269.229 229.033 269.229 232.677C269.229 236.322 269.617 247.971 269.617 247.971" stroke="white" stroke-width="0.530341" stroke-miterlimit="10" stroke-linecap="round"/>
<path d="M271.136 139.319L271.561 141.014L274.312 141.645L273.887 139.532" stroke="white" stroke-width="0.530341" stroke-miterlimit="10" stroke-linecap="round"/>
<path d="M274.324 141.645C274.324 141.645 279.402 141.433 281.941 140.589L281.333 138.894" stroke="white" stroke-width="0.530341" stroke-miterlimit="10" stroke-linecap="round"/>
<path d="M283.623 138.469L284.231 140.588C284.231 140.588 288.294 140.358 288.901 139.75" stroke="white" stroke-width="0.530341" stroke-miterlimit="10" stroke-linecap="round"/>
<path d="M271.561 141.014C270.157 140.97 268.782 140.606 267.54 139.951L265.633 138.894L266.24 137.412" stroke="white" stroke-width="0.530341" stroke-miterlimit="10" stroke-linecap="round"/>
<path d="M266.356 245.833C266.356 245.833 257.245 251.779 255.939 254.567C254.634 257.355 259.845 256.243 263.562 254.755C267.279 253.267 269.635 247.947 269.635 247.947L266.356 245.833Z" fill="white" stroke="#263238" stroke-width="1.06068" stroke-miterlimit="10" stroke-linecap="round"/>
<path d="M304.984 249.155C305.444 251.702 306.348 254.149 307.657 256.383C309.661 259.498 313.445 262.171 313.445 257.269C313.445 252.368 308.774 248.159 308.774 248.159C308.774 248.159 306.454 249.416 304.984 249.155Z" fill="white" stroke="#263238" stroke-width="1.06068" stroke-miterlimit="10" stroke-linecap="round"/>
<path d="M274.415 59.4809C274.415 59.4809 272.442 71.7254 273.11 74.7622C274.634 81.5586 279.985 81.2671 283.332 79.9673C286.46 78.7526 289.581 74.4585 289.982 73.8936C290.011 73.8538 290.051 73.824 290.098 73.8086C290.596 73.6689 293.687 72.685 295.048 70.298C296.536 67.6924 293.748 66.581 293.748 66.581" fill="white"/>
<g style="mix-blend-mode:multiply" opacity="0.5">
<path d="M287.079 77.0461L290.031 73.8028C290.031 73.8028 293.523 72.7277 295.048 70.2679C295.94 68.8284 295.449 67.5712 294.908 67.2311C294.167 66.8301 293.403 66.4751 292.618 66.1682L291.628 68.3486L290.784 68.4944C290.784 68.4944 291.136 66.2471 290.116 64.917C289.095 63.5869 288.865 59.7362 288.865 59.7362C288.865 59.7362 287.437 67.4133 287.261 70.6262C287.216 72.4143 286.657 74.1516 285.652 75.6309C285.652 75.6309 285.834 77.5927 286.186 79.5545C286.229 79.7853 286.271 80.1315 286.314 80.5627L286.8 79.7853L287.067 80.5263C286.763 79.2508 286.624 77.8964 287.079 77.0461Z" fill="#4987FA"/>
</g>
<path d="M274.415 59.4809C274.415 59.4809 272.442 71.7254 273.11 74.7622C274.634 81.5586 279.985 81.2671 283.332 79.9673C286.46 78.7526 289.581 74.4585 289.982 73.8936C290.011 73.8538 290.051 73.824 290.098 73.8086C290.596 73.6689 293.687 72.685 295.048 70.298C296.536 67.6924 293.748 66.581 293.748 66.581" stroke="#263238" stroke-width="1.06068" stroke-miterlimit="10" stroke-linecap="round"/>
<path d="M281.971 65.7063C281.856 66.1922 281.971 66.6295 282.196 66.6842C282.421 66.7389 282.724 66.3987 282.84 65.9189C282.955 65.4391 282.84 65.0018 282.615 64.9411C282.39 64.8803 282.087 65.2265 281.971 65.7063Z" fill="#263238"/>
<path d="M276.754 64.4372C276.638 64.9231 276.754 65.3604 276.979 65.4151C277.203 65.4698 277.507 65.1296 277.622 64.6498C277.738 64.17 277.622 63.7266 277.398 63.672C277.173 63.6173 276.863 63.9513 276.754 64.4372Z" fill="#263238"/>
<path d="M285.208 63.5805C284.921 63.0755 284.513 62.6504 284.019 62.3438C283.526 62.0372 282.964 61.8589 282.384 61.8253" stroke="#263238" stroke-width="1.06068" stroke-miterlimit="10" stroke-linecap="round"/>
<path d="M278.388 61.9163C277.91 61.7074 277.379 61.6489 276.867 61.7487C276.355 61.8485 275.885 62.1019 275.521 62.4751" stroke="#263238" stroke-width="1.06068" stroke-miterlimit="10" stroke-linecap="round"/>
<path d="M278.74 64.1273C278.751 64.9409 278.69 65.7539 278.558 66.5567C278.357 67.571 277.568 67.7715 277.768 68.555C277.969 69.3385 278.983 69.4174 278.983 69.4174" stroke="#263238" stroke-width="1.06068" stroke-miterlimit="10" stroke-linecap="round"/>
<path d="M280.04 72.5817C280.47 72.7186 280.924 72.7608 281.372 72.7052C281.819 72.6496 282.25 72.4977 282.633 72.2598" stroke="#263238" stroke-width="1.06068" stroke-miterlimit="10" stroke-linecap="round"/>
<path d="M289.66 50.9292C289.66 50.9292 285.573 47.3943 281.667 47.3943C277.762 47.3943 274.598 49.6294 272.18 49.8238C269.763 50.0181 268.093 47.777 266.605 50.753C265.117 53.7291 270.698 58.752 274.416 59.493C278.133 60.234 283.338 59.1225 284.826 58.9343C286.251 58.8365 287.682 58.8365 289.108 58.9343C289.108 58.9343 287.99 62.4691 289.108 63.5867C290.225 64.7042 290.407 65.4452 290.407 66.1862C290.471 67.004 290.595 67.816 290.778 68.6157L291.895 68.9922L292.454 66.9454C293.962 65.3376 294.993 63.3418 295.43 61.1815C295.983 57.8349 293.195 54.5005 293.195 54.5005L289.66 50.9292Z" fill="#263238"/>
<path d="M274.002 57.9684C274.002 57.9684 280.362 59.1831 285.342 57.112C290.322 55.0409 286.028 50.929 286.028 50.929" stroke="white" stroke-width="0.530341" stroke-miterlimit="10" stroke-linecap="round"/>
<path d="M287.079 50.5831C287.595 50.5831 291.889 53.8447 291.027 56.2498C290.165 58.655 288.452 58.8311 288.452 58.8311" stroke="white" stroke-width="0.530341" stroke-miterlimit="10" stroke-linecap="round"/>
<path d="M286.375 124.36L281.005 121.529C279.625 121.453 278.253 121.274 276.9 120.995C275.648 120.637 262.809 119.41 262.809 119.41L262.614 122.447C262.614 122.447 277.258 124.414 280.289 124.773C283.319 125.131 286.004 126.558 286.538 127.451C287.073 128.344 288.148 129.237 287.614 131.703C287.079 134.169 283.508 137.776 283.508 137.776C283.338 137.521 292.096 136.89 292.011 135.954C291.823 134.096 290.833 128.666 290.833 128.666L286.375 124.36Z" fill="#4987FA"/>
<path opacity="0.5" d="M286.375 124.36L281.005 121.529C279.625 121.453 278.253 121.274 276.9 120.995C275.648 120.637 262.809 119.41 262.809 119.41L262.614 122.447C262.614 122.447 277.258 124.414 280.289 124.773C283.319 125.131 286.004 126.558 286.538 127.451C287.073 128.344 288.148 129.237 287.614 131.703C287.079 134.169 283.508 137.776 283.508 137.776C283.368 137.503 292.114 136.884 292.011 135.954C291.725 133.586 290.833 128.666 290.833 128.666L286.375 124.36Z" fill="white"/>
<path d="M304.085 94.6474C303.612 92.4245 300.077 92.7221 297.945 91.4891C295.813 90.2562 290.656 87.4015 290.656 87.4015L288.16 83.648C287.71 82.6361 287.346 81.5876 287.073 80.514L286.806 79.773L286.32 80.5505C286.63 83.8788 286.927 92.4002 286.927 92.4002L287.996 97.7571C287.996 97.7571 292.108 115.431 293.177 119.361C294.246 123.291 294.246 125.963 293.535 127.214C292.825 128.466 293.062 129.036 293.062 129.036C293.062 129.036 295.849 126.88 295.679 124.742C295.455 122.228 304.419 96.1537 304.085 94.6474Z" fill="#4987FA"/>
<path opacity="0.5" d="M304.085 94.6474C303.842 92.388 300.077 92.7221 297.945 91.4891C295.813 90.2562 290.656 87.4015 290.656 87.4015L288.16 83.648C287.71 82.6361 287.346 81.5876 287.073 80.514L286.806 79.773L286.32 80.5505C286.63 83.8788 286.927 92.4002 286.927 92.4002L287.996 97.7571C287.996 97.7571 292.108 115.431 293.177 119.361C294.246 123.291 294.246 125.963 293.535 127.214C292.825 128.466 293.062 129.036 293.062 129.036C293.062 129.036 295.928 126.874 295.679 124.742C295.394 122.453 304.304 96.5242 304.085 94.6474Z" fill="white"/>
<path d="M288.482 92.4184C288.482 92.4184 287.364 82.3786 286.806 79.7731C286.247 77.1675 286.623 75.6855 284.206 75.6855C281.789 75.6855 278.813 75.3089 279.347 76.6148C279.882 77.9206 283.599 76.797 284.206 77.3557C284.814 77.9145 284.388 79.2143 284.388 79.2143C284.388 79.2143 279.529 79.5908 279.529 80.8906C279.529 82.1904 279.718 85.7495 280.647 86.0957C281.576 86.4419 281.947 84.4255 281.947 84.4255C281.947 84.4255 282.135 88.677 283.064 90.1894C283.656 91.1234 284.342 91.9944 285.111 92.7889L288.482 92.4184Z" fill="white" stroke="#263238" stroke-width="1.06068" stroke-miterlimit="10" stroke-linecap="round"/>
<path d="M285.135 95.2062C285.135 95.2062 284.577 118.286 285.506 121.985C286.435 125.684 291.458 130.725 294.058 128.308C296.657 125.89 295.364 120.685 295.364 118.268C295.364 115.851 289.411 98.0001 289.411 96.6942C289.323 95.6098 289.071 94.545 288.664 93.5359" stroke="#263238" stroke-width="1.06068" stroke-miterlimit="10" stroke-linecap="round"/>
<path d="M285.506 98.0002L289.223 97.6236" stroke="#263238" stroke-width="1.06068" stroke-miterlimit="10" stroke-linecap="round"/>
<path d="M261.734 109.54L262.45 89.005C262.45 89.005 261.558 88.4705 261.199 90.4323C260.841 92.3941 260.665 96.3299 260.665 96.3299C260.665 96.3299 256.377 93.6514 257.452 95.2548C258.527 96.8583 260.306 100.436 260.306 100.436L253.674 107.038L256.711 108.289L261.734 109.54Z" fill="#4987FA"/>
<path opacity="0.5" d="M261.734 109.54L262.45 89.005C262.45 89.005 261.558 88.4705 261.199 90.4323C260.841 92.3941 260.665 96.3299 260.665 96.3299C260.665 96.3299 256.377 93.6514 257.452 95.2548C258.527 96.8583 260.306 100.436 260.306 100.436L253.674 107.038L256.711 108.289L261.734 109.54Z" fill="white"/>
<path d="M270.626 93.5905C270.626 93.5905 270.285 94.8052 271.713 94.8052C273.14 94.8052 275.648 93.7909 275.648 93.7909L275.466 91.7745C275.466 91.7745 272.035 93.4447 270.626 93.5905Z" fill="#4987FA"/>
<path opacity="0.5" d="M270.626 93.5905C270.626 93.5905 270.285 94.8052 271.713 94.8052C273.14 94.8052 275.648 93.7909 275.648 93.7909L275.466 91.7745C275.466 91.7745 272.035 93.4447 270.626 93.5905Z" fill="white"/>
<path d="M276.754 80.0098C276.754 80.0098 274.895 90.9424 276.013 93.3718C277.13 95.8013 278.801 95.2304 280.1 94.1189C281.4 93.0074 283.077 90.2135 283.077 90.2135" stroke="#263238" stroke-width="1.06068" stroke-miterlimit="10" stroke-linecap="round"/>
<path d="M262.074 119.568L262.45 134.818C262.45 134.818 266.702 138.906 274.908 138.906C283.113 138.906 292.017 135.93 292.017 135.93V130.537" stroke="#263238" stroke-width="1.06068" stroke-miterlimit="10" stroke-linecap="round"/>
<path d="M287.182 82.1903C287.182 82.1903 290.529 85.5369 290.529 88.7012C290.529 91.8656 289.97 92.6066 289.97 92.6066" stroke="#263238" stroke-width="1.06068" stroke-miterlimit="10" stroke-linecap="round"/>
<path d="M290.152 86.8427C290.152 86.8427 295.175 89.8127 297.963 91.489C300.751 93.1653 304.104 93.1593 304.104 94.6473C304.104 96.1353 296.293 121.426 296.293 121.426" stroke="#263238" stroke-width="1.06068" stroke-miterlimit="10" stroke-linecap="round"/>
<path d="M293.317 95.2061L291.458 102.646" stroke="#263238" stroke-width="1.06068" stroke-miterlimit="10" stroke-linecap="round"/>
<path d="M262.122 99.5729L259.116 93.2684" stroke="#263238" stroke-width="0.530341" stroke-miterlimit="10" stroke-linecap="round"/>
<path d="M262.122 101.377L257.616 98.6742" stroke="#263238" stroke-width="0.530341" stroke-miterlimit="10" stroke-linecap="round"/>
<path d="M276.827 115.48L275.928 119.987" stroke="#263238" stroke-width="0.530341" stroke-miterlimit="10" stroke-linecap="round"/>
<path d="M301.14 94.4713C301.14 94.4713 296.639 95.3702 292.436 100.472" stroke="#263238" stroke-width="0.530341" stroke-miterlimit="10" stroke-linecap="round"/>
<path d="M298.139 94.1978C298.139 94.1978 296.924 93.8941 292.74 97.4958" stroke="#263238" stroke-width="0.530341" stroke-miterlimit="10" stroke-linecap="round"/>
<path d="M276.827 95.6737L275.029 109.777L276.529 110.08L277.732 105.58" stroke="#263238" stroke-width="0.530341" stroke-miterlimit="10" stroke-linecap="round"/>
<path d="M278.029 132.589C272.624 137.096 265.123 136.792 265.123 136.792" stroke="#263238" stroke-width="0.530341" stroke-miterlimit="10" stroke-linecap="round"/>
<path d="M255.186 108.095C255.186 108.095 251.512 104.73 246.307 109.012" stroke="#263238" stroke-width="0.530341" stroke-miterlimit="10" stroke-linecap="round"/>
<path d="M276.395 82.7489C276.395 82.7489 274.907 83.1194 273.231 85.725C271.555 88.3306 269.514 92.7886 271.002 93.1591C272.49 93.5296 275.254 91.8594 275.254 91.8594" stroke="#263238" stroke-width="1.06068" stroke-miterlimit="10" stroke-linecap="round"/>
<path d="M282.159 92.6068L284.018 94.277" stroke="#263238" stroke-width="1.06068" stroke-miterlimit="10" stroke-linecap="round"/>
<path d="M273.79 84.6074C273.79 84.6074 266.908 85.5367 264.121 85.725C261.333 85.9133 261.873 86.9397 260.962 87.5835C259.493 88.61 242.632 109.983 241.527 112.03C240.421 114.077 240.597 115.006 242.456 115.565C244.314 116.124 262.827 119.379 262.827 119.379L279.183 121.055L280.483 116.962C280.483 116.962 284.285 117.466 284.953 117.466" stroke="#263238" stroke-width="1.06068" stroke-miterlimit="10" stroke-linecap="round"/>
<path d="M278.624 115.456C275.015 114.408 271.525 112.983 268.214 111.204" stroke="#263238" stroke-width="1.06068" stroke-miterlimit="10" stroke-linecap="round"/>
<path d="M266.726 110.828C266.726 110.828 261.26 108.799 258.302 108.429C255.344 108.058 250.813 107.937 250.813 107.937" stroke="#263238" stroke-width="1.06068" stroke-miterlimit="10" stroke-linecap="round"/>
<path d="M261.703 108.41L262.262 93.7181" stroke="#263238" stroke-width="1.06068" stroke-miterlimit="10" stroke-linecap="round"/>
<path d="M279.183 121.056C280.459 121.697 281.796 122.21 283.174 122.586" stroke="#263238" stroke-width="1.06068" stroke-miterlimit="10" stroke-linecap="round"/>
<path d="M35.8303 109.218L38.0229 97.2345L51.9012 91.7682C51.9012 91.7682 52.5754 88.0451 53.2556 87.8811C53.9359 87.7171 54.604 86.1865 54.604 86.1865L54.2699 83.1193C54.2699 83.1193 55.5393 78.2604 61.9227 82.0443C61.9227 82.0443 59.9913 83.3319 60.3253 83.8664C60.6594 84.4009 59.9549 86.1015 60.7991 86.1015C61.6433 86.1015 63.35 87.1765 64.2125 88.0451C64.8161 88.6936 65.3495 89.4041 65.8038 90.1648L72.9889 90.5778C73.7254 90.5839 74.4581 90.6839 75.1694 90.8754C75.2908 87.3648 74.8596 84.6863 74.0093 82.6031C70.9178 75.0839 65.2814 72.3993 64.4737 68.6337C63.6659 64.868 64.0728 64.4732 64.0728 64.4732C64.8942 63.6381 65.4955 62.6122 65.8231 61.4876C66.1506 60.363 66.1941 59.1746 65.9495 58.0291C65.1478 54.0022 62.0563 51.178 50.9112 50.6435C39.766 50.109 41.3816 57.7557 41.3816 57.7557L41.5152 58.2902C41.5152 58.2902 34.3969 60.7197 35.7453 69.7026C37.0936 78.6856 40.9808 82.5909 40.8471 85.4091C40.7135 88.2273 36.547 89.3023 30.6373 95.7343C24.7277 102.166 23.5251 111.842 25.9424 118.152C27.1571 121.256 29.5319 123.843 32.5141 125.775L35.8303 109.218Z" fill="#263238"/>
<path d="M45.1351 110.402V113.111L39.9907 129.006C43.2053 129.857 46.5765 129.927 49.824 129.213C51.6571 128.735 53.4092 127.988 55.023 126.996L45.1351 110.402Z" fill="#263238"/>
<path d="M59.9245 83.7691L60.5318 86.5023C60.5318 86.5023 62.3539 84.6802 65.9131 90.2133C65.9131 90.2133 73.3108 90.0371 75.3273 91.0454C75.3273 91.0454 75.7463 91.1668 77.1129 92.6184C78.4795 94.07 83.6178 98.6921 83.6178 98.6921C83.6178 98.6921 90.2138 104.814 90.8697 105.288C91.5257 105.762 93.9855 108.112 95.8258 108.932L100.758 97.7021L102.956 92.1447L104.171 87.5712H104.56L104.645 83.8845L104.347 79.4872C104.396 79.2636 104.498 79.0551 104.645 78.8798C105.154 78.174 105.546 77.3906 105.805 76.5597C105.805 76.1467 105.386 73.7051 105.386 73.7051C105.386 73.7051 105.179 73.0977 105.629 73.0248C106.078 72.9519 107.736 73.5289 107.943 74.689L108.55 74.4825C109.053 73.2807 109.68 72.1347 110.421 71.063C111.405 69.7876 112.413 68.9858 113.039 69.3989C113.21 69.5172 113.334 69.6931 113.387 69.8947C113.441 70.0962 113.421 70.3103 113.33 70.4982L111.374 74.0938C111.374 74.0938 110.512 75.2539 111.581 75.6669C111.581 75.6669 113.895 77.1549 114.047 78.4607C114.199 79.7666 113.36 80.8902 112.619 81.8498C111.879 82.8095 110.573 84.8867 110.573 84.8867L109.054 86.229L108.447 88.543L109.164 89.4358L108.095 94.07L107.323 97.5442L106.935 99.6517L104.505 107.973L102.076 115.225C102.076 115.225 100.824 119.379 97.7937 119.264C94.763 119.148 91.4407 117.508 90.3656 116.974C89.2906 116.439 80.4291 111.811 80.4291 111.811L78.607 110.949C78.8502 111.778 78.9549 112.642 78.9168 113.506C78.8864 115.109 77.1615 118.644 76.6574 119.446L76.3598 125.714C76.2421 126.801 76.2626 127.899 76.4205 128.981C76.6878 130.615 78.0543 139.859 78.3519 141.013C78.3519 141.013 75.4001 143.686 66.6055 144.955C57.8109 146.224 53.6929 144.166 53.6929 144.166L49.7754 141.864L54.604 132.322C54.604 132.322 55.8187 129.486 55.6972 128.738C55.5757 127.991 53.4986 124.772 53.4986 124.772L45.8761 111.204L45.5178 111.325L44.3334 115.285L40.0515 128.714L34.4151 145.477C34.4151 145.477 32.8724 149.729 32.2347 150.986L30.4551 156.41C30.554 157.379 30.7933 158.328 31.1657 159.228L26.6895 156.331L27.4851 152.079L28.4751 145.739L29.6898 138.845L30.7588 133.142L32.4655 125.538L33.0729 123.436L34.2876 117.496L36.4255 106.721L38.2476 97.4956L51.0023 92.4241L51.7979 91.8167C51.9749 90.6425 52.406 89.5211 53.0613 88.5309C53.516 87.8794 54.0575 87.2929 54.6708 86.7877C54.6708 86.7877 54.61 85.9921 54.5675 85.2389C54.525 84.4858 54.3306 83.101 54.3306 83.101C54.3306 83.101 58.2724 84.7956 59.9245 83.7691Z" fill="white"/>
<path d="M42.8392 59.3591C42.8392 59.3591 45.2019 54.1297 49.9272 54.1297C54.6525 54.1297 64.4371 63.4102 64.4371 63.4102" stroke="white" stroke-width="0.530341" stroke-miterlimit="10" stroke-linecap="round"/>
<path d="M44.8618 60.1854C44.8618 60.1854 47.7286 57.1485 51.2756 58.3268C54.8226 59.5051 55.3267 63.7263 55.3267 63.7263" stroke="white" stroke-width="0.530341" stroke-miterlimit="10" stroke-linecap="round"/>
<path d="M42.4992 60.7076C42.4992 60.7076 38.2841 63.0703 37.9439 67.4615C37.6038 71.8528 43.8475 77.0761 44.6918 82.9858C45.536 88.8955 41.1508 90.2377 34.0629 95.1331C26.9749 100.028 28.1593 110.991 29.6777 113.354" stroke="white" stroke-width="0.530341" stroke-miterlimit="10" stroke-linecap="round"/>
<path d="M30.5219 114.709C30.5219 114.709 31.5301 116.901 33.0485 117.575" stroke="white" stroke-width="0.530341" stroke-miterlimit="10" stroke-linecap="round"/>
<path d="M43.0093 72.1808C42.8097 72.6094 42.7201 73.081 42.7487 73.5529C42.7774 74.0249 42.9233 74.4822 43.1733 74.8835C44.0175 76.4019 50.4616 83.994 49.9272 87.541C49.3927 91.088 46.0461 93.2745 46.0461 93.2745" stroke="white" stroke-width="0.530341" stroke-miterlimit="10" stroke-linecap="round"/>
<path d="M46.2102 60.7076C46.2102 60.7076 42.3291 62.3961 42.4992 66.2772C42.6693 70.1582 43.5135 71.1725 43.5135 71.1725" stroke="white" stroke-width="0.530341" stroke-miterlimit="10" stroke-linecap="round"/>
<path d="M64.4371 73.5475C65.643 76.2775 67.2977 78.7862 69.3325 80.9695C72.3693 84.0063 72.7034 88.3975 72.7034 88.3975" stroke="white" stroke-width="0.530341" stroke-miterlimit="10" stroke-linecap="round"/>
<path d="M67.9781 83.1497C67.9781 83.1497 69.4966 86.6967 69.4966 88.8893" stroke="white" stroke-width="0.530341" stroke-miterlimit="10" stroke-linecap="round"/>
<path d="M59.5783 84.0911L54.8105 88.3851C54.8105 88.3851 54.3003 89.6849 53.3407 91.7682C52.381 93.8514 52.5389 97.8418 52.5389 97.8418L55.4786 103.691C55.4786 103.691 49.824 97.2041 49.5021 96.4024C49.1802 95.6007 43.2645 97.0462 42.1469 97.526C41.0294 98.0058 39.5838 98.9655 39.9057 100.405C40.2276 101.844 41.6671 103.758 41.0233 104.079C40.3795 104.401 38.6242 103.6 38.6242 104.559C38.6242 105.519 40.7075 109.2 39.7478 110.475C38.7882 111.75 32.7085 132.389 32.7085 132.389C32.7085 132.389 36.547 129.188 35.5874 130.469C34.6277 131.751 29.9935 142.143 29.9935 142.143L28.2322 148.217L32.3926 126.631L35.9093 108.41L38.0229 97.2345C40.0637 96.5542 51.9012 91.7682 51.9012 91.7682C51.9012 91.7682 52.8365 87.8324 54.604 86.1865L54.2699 83.1193C54.2699 83.1193 57.495 84.249 59.5783 84.0911Z" fill="#4987FA"/>
<path opacity="0.5" d="M59.5783 84.0911L54.8105 88.3851C54.8105 88.3851 54.3003 89.6849 53.3407 91.7682C52.381 93.8514 52.5389 97.8418 52.5389 97.8418L55.4786 103.691C55.4786 103.691 49.824 97.2041 49.5021 96.4024C49.1802 95.6007 43.2645 97.0462 42.1469 97.526C41.0294 98.0058 39.5838 98.9655 39.9057 100.405C40.2276 101.844 41.6671 103.758 41.0233 104.079C40.3795 104.401 38.6242 103.6 38.6242 104.559C38.6242 105.519 40.7075 109.2 39.7478 110.475C38.7882 111.75 32.7085 132.389 32.7085 132.389C32.7085 132.389 36.547 129.188 35.5874 130.469C34.6277 131.751 29.9935 142.143 29.9935 142.143L28.2322 148.217L32.3926 126.631L35.9093 108.41L38.0229 97.2345C40.0637 96.5542 51.9012 91.7682 51.9012 91.7682C51.9012 91.7682 52.1563 88.124 54.6101 86.8485L54.2699 83.1193C54.2699 83.1193 57.495 84.249 59.5783 84.0911Z" fill="white"/>
<path d="M77.3254 105.677C77.3254 105.677 80.2044 100.885 80.5263 102.003C80.8482 103.12 79.7245 106.953 79.7245 106.953C79.7245 106.953 82.7614 105.835 82.4455 106.795C82.1297 107.754 81.4859 108.234 81.6438 108.714C81.8017 109.194 92.1998 114.63 93.4814 115.267C94.7629 115.905 97.7997 112.231 99.2392 113.348C100.679 114.466 99.2392 118.298 96.3603 118.304C93.4814 118.31 85.1665 114.66 85.1665 114.66L78.6191 110.852" fill="#4987FA"/>
<path opacity="0.5" d="M77.3254 105.677C77.3254 105.677 80.2044 100.885 80.5263 102.003C80.8482 103.12 79.7245 106.953 79.7245 106.953C79.7245 106.953 82.7614 105.835 82.4455 106.795C82.1297 107.754 81.4859 108.234 81.6438 108.714C81.8017 109.194 92.1998 114.63 93.4814 115.267C94.7629 115.905 97.7997 112.231 99.2392 113.348C100.679 114.466 99.2392 118.298 96.3603 118.304C93.4814 118.31 85.1665 114.66 85.1665 114.66L78.6434 110.864" fill="white"/>
<path d="M60.0581 125.028C60.0581 125.028 78.7528 115.115 75.716 118.79C72.6792 122.464 62.6151 126.631 60.0581 125.028Z" fill="#4987FA"/>
<path opacity="0.5" d="M60.0581 125.028C60.0581 125.028 78.7528 115.115 75.716 118.79C72.6792 122.464 62.6151 126.631 60.0581 125.028Z" fill="white"/>
<path d="M54.2699 83.1497C54.2699 83.1497 54.4035 85.7006 54.8105 88.3851C55.2174 91.0697 55.0777 91.0697 57.6286 94.2887C60.1796 97.5078 62.8641 100.198 63.265 99.6639" stroke="#263238" stroke-width="1.06068" stroke-miterlimit="10" stroke-linecap="round"/>
<path d="M63.3986 98.7227C63.3986 98.7227 63.6658 94.0217 62.7305 90.9362C61.7952 87.8508 60.4468 86.7697 60.4468 86.0773C60.4014 85.3559 60.3122 84.6379 60.1796 83.9272" stroke="#263238" stroke-width="1.06068" stroke-miterlimit="10" stroke-linecap="round"/>
<path d="M54.2699 87.0431C53.1971 88.0091 52.4466 89.2811 52.1198 90.6873C51.719 92.8313 51.3181 95.3822 51.3181 95.3822L55.4786 103.709C55.8408 102.259 56.3814 100.86 57.0881 99.5426C57.4381 98.8927 57.8914 98.3039 58.4304 97.7995" stroke="#263238" stroke-width="1.06068" stroke-miterlimit="10" stroke-linecap="round"/>
<path d="M64.3401 96.439C64.6338 96.3655 64.9392 96.3512 65.2385 96.3971C65.5378 96.443 65.825 96.5481 66.0832 96.7063C67.1582 97.2468 69.3083 100.065 69.3083 100.065C69.3083 100.065 67.8324 93.0803 65.2815 89.4604C62.7305 85.8405 60.9813 86.1017 60.9813 86.1017" stroke="#263238" stroke-width="1.06068" stroke-miterlimit="10" stroke-linecap="round"/>
<path d="M50.9112 92.2787L38.0229 97.2348C38.0229 97.2348 33.3279 122.878 31.5787 129.723C29.8295 136.568 26.8838 155.906 26.8838 155.906L30.3701 156.574L31.5848 153.088" stroke="#263238" stroke-linecap="round" stroke-linejoin="round"/>
<path d="M32.2529 151.084C32.2529 151.084 33.0547 149.869 35.2047 143.188C37.3548 136.507 43.1005 120.108 44.0662 116.871C45.0319 113.633 45.8093 111.502 45.8093 111.502" stroke="#263238" stroke-width="1.06068" stroke-miterlimit="10" stroke-linecap="round"/>
<path d="M43.5256 107.56C43.5256 107.56 54.3975 126.996 55.3389 127.834C56.2803 128.672 54.938 130.919 54.6647 132.128" stroke="#263238" stroke-width="1.06068" stroke-miterlimit="10" stroke-linecap="round"/>
<path d="M53.4621 134.569L49.9758 141.821C49.9758 141.821 52.2595 145.314 61.9227 145.314C67.6734 145.331 73.3417 143.947 78.437 141.281C78.437 141.281 76.1533 129.2 76.2869 127.05C76.4205 124.9 76.6938 119.264 76.6938 119.264C76.6938 119.264 79.1233 115.619 78.8378 112.819C78.5524 110.02 77.3619 106.776 77.3619 106.242C77.3619 105.707 77.0947 99.9312 77.0947 99.9312" stroke="#263238" stroke-width="1.06068" stroke-miterlimit="10" stroke-linecap="round"/>
<path d="M61.9044 122.635L71.5251 116.731" stroke="#263238" stroke-width="0.530341" stroke-miterlimit="10" stroke-linecap="round"/>
<path d="M66.9698 120.782L72.1993 117.745" stroke="#263238" stroke-width="0.530341" stroke-miterlimit="10" stroke-linecap="round"/>
<path d="M95.759 109.06L93.7972 113.864" stroke="#263238" stroke-width="0.530341" stroke-miterlimit="10" stroke-linecap="round"/>
<path d="M94.9755 111.161L93.123 113.02" stroke="#263238" stroke-width="0.530341" stroke-miterlimit="10" stroke-linecap="round"/>
<path d="M40.1365 128.21C40.1365 128.21 36.9296 131.921 34.7371 133.439" stroke="#263238" stroke-width="0.530341" stroke-miterlimit="10" stroke-linecap="round"/>
<path d="M38.284 129.218C38.284 129.218 32.7144 133.603 31.3661 134.618" stroke="#263238" stroke-width="0.530341" stroke-miterlimit="10" stroke-linecap="round"/>
<path d="M39.274 98C40.953 100.374 42.4747 102.855 43.8293 105.428" stroke="#263238" stroke-width="0.530341" stroke-miterlimit="10" stroke-linecap="round"/>
<path d="M44.3577 106.606L45.536 108.629" stroke="#263238" stroke-width="0.530341" stroke-miterlimit="10" stroke-linecap="round"/>
<path d="M77.3619 106.242L78.8378 98.7225" stroke="#263238" stroke-width="0.530341" stroke-miterlimit="10" stroke-linecap="round"/>
<path d="M77.9025 106.777L80.1801 103.557" stroke="#263238" stroke-width="0.530341" stroke-miterlimit="10" stroke-linecap="round"/>
<path d="M45.8093 111.477L39.3651 107.985" stroke="#263238" stroke-width="0.530341" stroke-miterlimit="10" stroke-linecap="round"/>
<path d="M63.1313 100.332C63.1313 100.332 65.5608 105.191 66.3565 108.659" stroke="#263238" stroke-width="0.530341" stroke-miterlimit="10" stroke-linecap="round"/>
<path d="M103.005 91.8717C103.647 91.8243 104.293 91.9075 104.903 92.1162C105.512 92.325 106.073 92.655 106.552 93.0864" stroke="#263238" stroke-width="0.530341" stroke-miterlimit="10" stroke-linecap="round"/>
<path d="M29.2161 152.572L30.8802 153.191" stroke="#263238" stroke-width="0.530341" stroke-miterlimit="10" stroke-linecap="round"/>
<path d="M26.8413 156.149C26.8622 158.458 26.7404 160.767 26.4769 163.061C26.076 165.885 26.2096 172.329 26.7441 174.34C27.2786 176.35 27.5519 176.769 28.0864 175.554C28.6209 174.34 30.2364 167.233 30.2364 167.233C30.2364 167.233 30.5037 171.928 31.7123 171.528C32.921 171.127 32.2529 168.843 32.2529 166.826C32.2529 164.81 32.3865 164.142 32.2529 162.532C32.1193 160.923 30.3275 156.945 30.3275 156.945" fill="white"/>
<path d="M26.8413 156.149C26.8622 158.458 26.7404 160.767 26.4769 163.061C26.076 165.885 26.2096 172.329 26.7441 174.34C27.2786 176.35 27.5519 176.769 28.0864 175.554C28.6209 174.34 30.2364 167.233 30.2364 167.233C30.2364 167.233 30.5037 171.928 31.7123 171.528C32.921 171.127 32.2529 168.843 32.2529 166.826C32.2529 164.81 32.3865 164.142 32.2529 162.532C32.1193 160.923 30.3275 156.945 30.3275 156.945" stroke="#263238" stroke-miterlimit="10" stroke-linecap="round"/>
<path d="M104.572 87.4681C104.511 86.2804 104.511 85.0905 104.572 83.9028C104.681 82.7853 104.238 81.115 104.347 79.6513C104.456 78.1875 105.908 77.647 105.683 75.752C105.459 73.857 105.015 73.6323 105.349 73.1889C105.683 72.7455 107.779 73.4076 107.912 74.6344C108.031 75.897 108.031 77.1679 107.912 78.4305C107.803 78.7645 108.58 80.8599 108.137 81.771C107.883 82.2645 107.695 82.7893 107.578 83.3319" stroke="#263238" stroke-width="0.880843" stroke-miterlimit="10" stroke-linecap="round"/>
<path d="M108.362 74.5374C108.362 74.5374 110.925 69.4113 112.376 69.2959C113.828 69.1805 113.379 70.5106 112.929 71.1908C112.48 71.8711 111.034 74.3127 110.925 75.3209C110.816 76.3292 109.473 79.6636 109.473 79.6636" stroke="#263238" stroke-width="0.880843" stroke-miterlimit="10" stroke-linecap="round"/>
<path d="M110.943 75.3209C110.943 75.3209 114.849 77.6592 113.98 79.5724C113.111 81.4856 112.638 82.2509 111.97 82.0019C111.377 81.6992 110.848 81.287 110.409 80.7871" stroke="#263238" stroke-width="0.880843" stroke-miterlimit="10" stroke-linecap="round"/>
<path d="M112.377 82.0081C112.377 82.0081 111.368 83.6784 110.591 84.6866C110.144 85.2689 109.614 85.7825 109.018 86.2111L108.544 87.8571" stroke="#263238" stroke-width="0.880843" stroke-miterlimit="10" stroke-linecap="round"/>
<path d="M65.5487 90.1285C65.5487 90.1285 74.811 89.9949 76.0197 91.4708C77.2283 92.9467 91.8658 106.376 93.6333 107.584C95.4007 108.793 95.7833 109.06 95.7833 109.06C95.7833 109.06 103.029 92.6612 103.029 91.8717C103.029 91.0821 104.244 87.444 104.244 87.444C104.244 87.444 106.528 87.7112 107.068 87.7112C107.609 87.7112 109.079 89.4604 109.079 89.4604C109.079 89.4604 107.068 97.6477 107.068 98.5709C107.068 99.4941 103.309 112.267 101.559 116.184C99.8102 120.102 97.3989 119.537 93.5057 118.328C89.6125 117.12 79.0079 111.083 79.0079 111.083" stroke="#263238" stroke-width="1.06068" stroke-miterlimit="10" stroke-linecap="round"/>
<path d="M49.9758 141.821C49.9758 141.821 44.6006 155.268 43.149 164.421C41.6974 173.574 42.3169 194.978 41.8979 197.268C41.4788 199.557 35.6602 210.362 35.6602 215.561C35.6602 220.761 32.5444 247.576 32.5444 247.576L34.6216 248.821C34.6216 248.821 41.91 226.348 44.6006 220.548C47.2913 214.748 51.0448 201.009 52.0834 198.306C53.122 195.603 60.4043 173.981 60.8173 171.278C61.2303 168.576 63.7266 161.925 63.7266 161.925C63.7266 161.925 69.1321 194.978 70.1707 201.841C71.2093 208.704 78.4855 245.912 78.4855 245.912C78.9634 246.028 79.4517 246.098 79.9432 246.118C80.5506 246.118 80.7753 245.079 80.7753 245.079C80.7753 245.079 83.6846 218.677 82.8525 211.608C82.0204 204.538 79.5302 195.816 79.5302 193.314C79.5302 190.811 83.2716 169.201 83.2716 161.731C83.2716 154.26 78.4127 141.293 78.4127 141.293C78.4127 141.293 61.1696 149.99 49.9758 141.821Z" fill="#263238"/>
<path d="M79.4512 194.686C79.4512 194.686 77.5988 202.619 75.066 206.834" stroke="white" stroke-width="0.530341" stroke-miterlimit="10" stroke-linecap="round"/>
<path d="M78.9471 202.788C78.9471 202.788 77.4287 208.522 74.3918 211.225" stroke="white" stroke-width="0.530341" stroke-miterlimit="10" stroke-linecap="round"/>
<path d="M43.0094 200.256C43.0094 200.256 44.1877 207.174 45.536 210.041" stroke="white" stroke-width="0.530341" stroke-miterlimit="10" stroke-linecap="round"/>
<path d="M42.6692 204.307C42.6692 204.307 43.6835 209.202 45.536 212.069" stroke="white" stroke-width="0.530341" stroke-miterlimit="10" stroke-linecap="round"/>
<path d="M64.2671 161.955L71.0149 156.386" stroke="white" stroke-width="0.530341" stroke-miterlimit="10" stroke-linecap="round"/>
<path d="M67.474 159.593L75.4062 156.046" stroke="white" stroke-width="0.530341" stroke-miterlimit="10" stroke-linecap="round"/>
<path d="M50.0912 150.142C50.0912 150.142 55.3267 153.513 58.3635 156.386" stroke="white" stroke-width="0.530341" stroke-miterlimit="10" stroke-linecap="round"/>
<path d="M32.7631 247.557C32.7631 247.557 24.8673 254.238 24.8673 257.555C24.8673 260.871 27.9831 260.67 31.3115 257.555C34.6398 254.439 34.8099 248.019 34.8099 248.019L32.7631 247.557Z" fill="white" stroke="#263238" stroke-width="1.06068" stroke-miterlimit="10" stroke-linecap="round"/>
<path d="M78.4855 245.911C78.4855 245.911 81.1882 252.562 84.1036 255.477C87.019 258.393 88.6771 259.425 88.6771 256.304C88.6771 253.182 86.8064 249.653 80.7813 245.079C80.7752 245.079 82.4394 246.325 78.4855 245.911Z" fill="white" stroke="#263238" stroke-width="1.06068" stroke-miterlimit="10" stroke-linecap="round"/>
<path d="M50.5954 61.8253C50.0549 61.6249 49.5447 61.3819 49.0163 61.1572C48.4878 60.9325 47.5221 60.811 47.1577 62.4691C46.6172 64.8986 50.3768 66.9029 49.1681 68.9133C48.4162 70.1363 47.2861 71.0809 45.9491 71.6039C45.7314 71.6787 45.5046 71.7237 45.2749 71.7375C44.1999 71.8711 42.4567 71.7375 42.9912 73.6143C43.5257 75.491 45.2749 77.1066 46.3499 77.1066H47.425C47.425 77.1066 48.6397 80.7508 53.1949 82.743C57.7502 84.7351 60.8477 84.6258 61.9228 82.0749C62.9978 79.5239 63.8056 77.3739 63.8056 74.0151C63.8056 70.6564 62.5909 65.0201 62.5909 65.0201C62.5909 65.0201 61.5158 66.502 57.3554 64.6192C54.604 63.3741 52.0288 62.3659 50.5954 61.8253Z" fill="white"/>
<g style="mix-blend-mode:multiply" opacity="0.5">
<path d="M57.3613 64.6192C57.3613 64.6192 50.9414 64.2608 49.9818 64.4188C49.0222 64.5767 50.1397 67.4556 49.8239 70.3345C49.5081 73.2134 49.6599 77.8537 50.9414 79.2931C52.4537 80.7773 54.0562 82.1668 55.7396 83.4536C55.7396 83.4536 50.8139 82.6579 49.0222 80.5747C47.2304 78.4914 46.945 77.3739 46.945 77.3739C46.945 77.3739 42.7845 74.9444 42.4626 73.0555C42.1407 71.1666 44.8921 72.1687 46.2101 71.2334C46.951 70.7232 50.0182 69.7636 49.2469 67.2066C48.4755 64.6496 47.2304 64.1697 47.1819 62.457C47.1454 61.2422 48.2144 60.89 48.8703 60.7806C49.166 60.7309 49.4699 60.7755 49.7389 60.9082L57.3613 64.6192Z" fill="#4987FA"/>
</g>
<path d="M50.5954 61.8253C50.0549 61.6249 49.5447 61.3819 49.0163 61.1572C48.4878 60.9325 47.5221 60.811 47.1577 62.4691C46.6172 64.8986 50.3768 66.9029 49.1681 68.9133C48.4162 70.1363 47.2861 71.0809 45.9491 71.6039C45.7314 71.6787 45.5046 71.7237 45.2749 71.7375C44.1999 71.8711 42.4567 71.7375 42.9912 73.6143C43.5257 75.491 45.2749 77.1066 46.3499 77.1066H47.425C47.425 77.1066 48.6397 80.7508 53.1949 82.743C57.7502 84.7351 60.8477 84.6258 61.9228 82.0749C62.9978 79.5239 63.8056 77.3739 63.8056 74.0151C63.8056 70.6564 62.5909 65.0201 62.5909 65.0201C62.5909 65.0201 61.5158 66.502 57.3554 64.6192C54.604 63.3741 52.0288 62.3659 50.5954 61.8253Z" stroke="#263238" stroke-width="1.06068" stroke-miterlimit="10" stroke-linecap="round"/>
<path d="M55.3389 69.7817C55.4239 70.2919 55.2842 70.7413 55.0231 70.7838C54.7619 70.8263 54.4947 70.4437 54.4157 69.9335C54.3368 69.4233 54.4765 68.9678 54.7315 68.9253C54.9866 68.8828 55.2539 69.2958 55.3389 69.7817Z" fill="#263238"/>
<path d="M60.8963 68.8522C60.9752 69.3624 60.8355 69.8119 60.5804 69.8544C60.3253 69.8969 60.052 69.5143 59.9731 69.0041C59.8941 68.4939 60.0277 68.0444 60.2828 68.0019C60.5379 67.9594 60.8112 68.342 60.8963 68.8522Z" fill="#263238"/>
<path d="M52.1198 67.3036C52.4596 66.7984 52.9206 66.3864 53.4606 66.1053C54.0006 65.8241 54.6025 65.6828 55.2112 65.6941" stroke="#263238" stroke-width="1.06068" stroke-miterlimit="10" stroke-linecap="round"/>
<path d="M59.3717 66.0952C59.8876 65.9149 60.4462 65.8956 60.9733 66.0398C61.5004 66.1841 61.9713 66.4851 62.3235 66.903" stroke="#263238" stroke-width="1.06068" stroke-miterlimit="10" stroke-linecap="round"/>
<path d="M58.8373 68.3788C58.7631 69.2274 58.7631 70.081 58.8373 70.9297C58.9709 72.0047 59.7726 72.272 59.5054 73.0798C59.2381 73.8876 58.1631 73.8815 58.1631 73.8815" stroke="#263238" stroke-width="1.06068" stroke-miterlimit="10" stroke-linecap="round"/>
<path d="M56.8208 77.1066C56.3608 77.2153 55.8827 77.2232 55.4194 77.1299C54.956 77.0366 54.5183 76.8443 54.1362 76.566" stroke="#263238" stroke-width="1.06068" stroke-miterlimit="10" stroke-linecap="round"/>
</svg>
