<svg width="277" height="261" viewBox="0 0 277 261" fill="none" xmlns="http://www.w3.org/2000/svg">
<path d="M276.122 255.974C276.122 258.243 214.301 260.09 138.065 260.09C61.8285 260.09 0 258.243 0 255.974C0 253.704 61.8212 251.857 138.065 251.857C214.309 251.857 276.122 253.704 276.122 255.974Z" fill="#4987FA"/>
<path opacity="0.3" d="M276.122 255.974C276.122 258.243 214.301 260.09 138.065 260.09C61.8285 260.09 0 258.243 0 255.974C0 253.704 61.8212 251.857 138.065 251.857C214.309 251.857 276.122 253.704 276.122 255.974Z" fill="white"/>
<path d="M249.692 176.719C249.692 176.755 251.561 174.791 251.663 174.653C252.849 173.068 254.209 169.3 252.921 167.489C252.699 167.195 252.418 166.951 252.096 166.773C251.774 166.595 251.417 166.486 251.05 166.455C250.683 166.423 250.314 166.469 249.966 166.59C249.618 166.71 249.299 166.903 249.03 167.155C247.852 168.187 247.576 170.1 247.677 171.577C247.801 173.308 249.692 176.711 249.692 176.719Z" fill="#4987FA"/>
<path d="M266.682 169.955C264.864 168.682 261.111 170.071 259.533 171.264C259.394 171.373 257.445 173.235 257.482 173.249H257.525C256.929 173.468 256.296 173.7 255.605 173.977C254.34 174.486 252.914 175.082 251.401 175.824C249.768 176.618 248.18 177.502 246.645 178.472C244.924 179.552 243.303 180.783 241.801 182.152C241.782 182.167 241.765 182.184 241.75 182.203C242.07 181.643 242.921 180.021 242.972 179.904C243.699 178.057 244.012 174.086 242.295 172.668C242.002 172.444 241.664 172.284 241.305 172.199C240.946 172.114 240.572 172.105 240.21 172.174C239.847 172.243 239.502 172.387 239.199 172.597C238.895 172.807 238.64 173.079 238.448 173.395C237.59 174.704 237.822 176.617 238.317 178.013C238.87 179.592 241.379 182.195 241.583 182.377C240.085 183.806 238.685 185.334 237.393 186.952C236.666 187.89 235.902 188.857 235.211 189.861C235.473 189.367 235.706 188.916 235.728 188.85C236.455 187.01 236.768 183.032 235.051 181.613C234.758 181.39 234.422 181.23 234.063 181.145C233.704 181.06 233.331 181.052 232.969 181.12C232.607 181.189 232.263 181.333 231.96 181.543C231.657 181.754 231.402 182.025 231.211 182.341C230.346 183.643 230.586 185.563 231.073 186.952C231.56 188.341 233.67 190.639 234.23 191.228L233.379 192.349C232.069 194.174 230.775 195.985 229.444 197.745C228.978 198.363 228.498 198.96 227.989 199.549C228.222 199.105 228.418 198.734 228.44 198.676C229.168 196.829 229.48 192.858 227.764 191.403C227.471 191.178 227.133 191.017 226.774 190.932C226.414 190.846 226.041 190.837 225.677 190.906C225.314 190.975 224.97 191.119 224.666 191.33C224.363 191.541 224.107 191.814 223.916 192.13C223.051 193.44 223.291 195.352 223.785 196.749C224.28 198.145 226.171 200.211 226.833 200.916C226.324 201.513 225.815 202.102 225.291 202.655C224.927 203.025 224.607 203.382 224.215 203.753L223.102 204.8C222.374 205.44 221.647 206.109 220.883 206.72C220.374 207.149 219.887 207.542 219.429 207.942C219.894 207.338 220.796 206.124 220.883 206.015C221.703 204.476 222.113 202.753 222.076 201.011C222.173 200.843 222.256 200.668 222.324 200.487C222.459 200.144 222.522 199.776 222.507 199.408C222.491 199.039 222.399 198.678 222.235 198.347C222.071 198.017 221.839 197.724 221.555 197.489C221.271 197.254 220.941 197.081 220.585 196.982C218.403 196.451 215.421 199.091 214.381 200.778C214.323 200.88 213.77 202.029 213.443 202.764C213.567 202.305 213.705 201.854 213.829 201.382C214.09 200.444 214.323 199.498 214.556 198.472C214.658 197.978 214.767 197.476 214.876 196.974C214.985 196.472 215.05 195.934 215.145 195.411C215.327 194.189 215.458 192.945 215.567 191.687C216.389 191.912 219.32 192.676 220.789 192.414C222.258 192.152 224.055 191.498 224.796 190.123C224.984 189.805 225.103 189.452 225.145 189.085C225.186 188.718 225.15 188.347 225.038 187.995C224.926 187.644 224.741 187.32 224.495 187.045C224.249 186.77 223.948 186.55 223.611 186.399C221.56 185.541 218.192 187.701 216.905 189.207C216.825 189.301 216.025 190.487 215.596 191.149C215.654 190.421 215.712 189.636 215.749 188.865C215.836 186.683 215.865 184.406 215.901 182.166C215.901 181.483 215.901 180.799 215.945 180.115C216.236 180.195 219.705 181.177 221.349 180.923C222.804 180.704 224.615 180.013 225.364 178.632C225.549 178.313 225.665 177.959 225.705 177.593C225.745 177.226 225.708 176.855 225.595 176.504C225.483 176.153 225.298 175.83 225.053 175.555C224.807 175.28 224.507 175.059 224.171 174.908C222.127 174.057 218.752 176.217 217.465 177.722C217.371 177.831 216.221 179.541 215.945 179.992C215.981 178.486 216.032 176.981 216.141 175.504C216.282 173.508 216.549 171.524 216.941 169.562C217.08 169.562 220.694 170.638 222.382 170.377C223.836 170.158 225.64 169.467 226.389 168.086C226.575 167.767 226.692 167.414 226.732 167.048C226.772 166.682 226.735 166.311 226.624 165.96C226.512 165.609 226.328 165.286 226.083 165.01C225.839 164.735 225.539 164.514 225.204 164.362C223.153 163.511 219.778 165.664 218.498 167.176C218.411 167.271 217.531 168.573 217.131 169.198L217.014 169.155C217.464 167.19 218.089 165.269 218.883 163.416C219.305 162.391 219.763 161.438 220.236 160.507C220.891 160.769 223.873 161.962 225.429 161.874C226.986 161.787 228.775 161.322 229.669 160.034C229.889 159.738 230.044 159.4 230.124 159.04C230.205 158.68 230.209 158.308 230.136 157.946C230.063 157.585 229.916 157.243 229.702 156.943C229.489 156.642 229.215 156.389 228.898 156.201C226.956 155.132 223.364 156.929 221.924 158.26C221.844 158.332 221.131 159.169 220.614 159.787C220.833 159.38 221.051 158.951 221.269 158.558C222.084 157.103 222.913 155.794 223.662 154.652C224.091 154.012 224.491 153.438 224.876 152.899C225.647 152.827 228.775 152.47 230.091 151.721C231.408 150.972 232.804 149.692 233 148.135C233.06 147.772 233.043 147.399 232.949 147.043C232.855 146.687 232.687 146.354 232.455 146.067C232.224 145.78 231.934 145.545 231.606 145.378C231.278 145.21 230.918 145.114 230.549 145.095C228.331 145.037 225.967 148.259 225.313 150.128C225.255 150.296 224.658 152.921 224.695 152.914H224.745C224.367 153.399 223.967 153.952 223.545 154.572C222.767 155.7 221.902 156.98 221.058 158.434C220.13 159.994 219.292 161.607 218.549 163.264C217.711 165.116 217.037 167.039 216.534 169.009C216.538 169.033 216.538 169.058 216.534 169.082C216.534 168.435 216.316 166.624 216.287 166.485C215.88 164.551 213.938 161.045 211.734 160.827C211.366 160.799 210.997 160.849 210.649 160.974C210.302 161.098 209.985 161.295 209.719 161.55C209.453 161.805 209.243 162.114 209.104 162.455C208.965 162.797 208.9 163.164 208.912 163.533C208.912 165.096 210.17 166.565 211.348 167.453C212.679 168.464 216.207 169.257 216.491 169.315C216.034 171.335 215.711 173.383 215.523 175.446C215.414 176.646 215.334 177.853 215.269 179.082C215.218 178.522 215.167 178.021 215.152 177.955C214.738 176.013 212.796 172.515 210.592 172.289C210.224 172.262 209.855 172.312 209.508 172.436C209.16 172.561 208.843 172.757 208.577 173.012C208.311 173.268 208.101 173.576 207.962 173.918C207.823 174.259 207.758 174.626 207.77 174.995C207.77 176.559 209.028 178.028 210.207 178.922C211.385 179.817 214.403 180.559 215.196 180.748C215.196 181.213 215.152 181.679 215.138 182.144C215.05 184.385 214.978 186.625 214.84 188.814C214.789 189.585 214.709 190.348 214.636 191.105C214.592 190.61 214.541 190.188 214.534 190.13C214.12 188.188 212.178 184.69 209.974 184.465C209.606 184.437 209.237 184.487 208.889 184.611C208.542 184.736 208.225 184.932 207.959 185.187C207.693 185.443 207.483 185.751 207.344 186.093C207.205 186.434 207.14 186.801 207.152 187.17C207.152 188.741 208.41 190.203 209.588 191.098C210.767 191.992 213.494 192.669 214.432 192.887C214.338 193.665 214.236 194.443 214.105 195.185C214.003 195.694 213.945 196.196 213.814 196.698L213.465 198.152C213.203 199.091 212.949 200.065 212.672 200.974C212.483 201.607 212.294 202.211 212.105 202.822C212.163 202.051 212.243 200.545 212.236 200.414C212.127 198.443 210.738 194.683 208.599 194.13C208.24 194.048 207.868 194.043 207.507 194.114C207.146 194.185 206.803 194.331 206.502 194.543C206.201 194.755 205.948 195.028 205.759 195.344C205.57 195.66 205.45 196.012 205.406 196.378C205.166 197.927 206.185 199.563 207.217 200.625C208.25 201.687 211.581 203.076 211.989 203.236C211.668 204.24 211.356 205.207 211.043 206.146C209.959 209.309 208.941 211.906 208.206 213.71C208.206 213.775 208.156 213.833 208.126 213.891L209.45 214.619C209.494 214.502 209.545 214.386 209.588 214.262C210.316 212.422 211.268 209.775 212.287 206.553C212.614 205.535 212.941 204.444 213.269 203.316C214.378 203.455 215.496 203.528 216.614 203.535C217.014 205.156 218.869 207.818 219.109 208.16C218.294 208.822 217.494 209.462 216.731 210.051C214.083 212.095 211.799 213.688 210.185 214.793L209.996 214.924L211.45 215.724C213.021 214.597 215.087 213.033 217.538 211.084C218.367 210.415 219.247 209.68 220.134 208.902C220.462 209.178 223.116 211.433 224.687 211.884C226.106 212.291 228.033 212.422 229.284 211.484C229.586 211.273 229.841 211.001 230.031 210.686C230.221 210.37 230.343 210.018 230.388 209.653C230.433 209.287 230.401 208.916 230.294 208.564C230.186 208.211 230.006 207.886 229.764 207.607C228.266 205.971 224.302 206.517 222.491 207.346C222.389 207.397 221.298 208.073 220.614 208.48C220.978 208.167 221.342 207.869 221.698 207.542C222.425 206.909 223.153 206.247 223.924 205.535L225.015 204.466C225.386 204.109 225.742 203.695 226.106 203.309C226.935 202.393 227.727 201.425 228.506 200.436C229.073 201.076 231.102 203.345 232.448 203.956C233.793 204.567 235.677 204.989 237.059 204.255C237.389 204.091 237.681 203.861 237.916 203.577C238.152 203.294 238.325 202.965 238.425 202.61C238.525 202.256 238.55 201.885 238.497 201.52C238.445 201.156 238.317 200.806 238.121 200.494C236.884 198.654 232.884 198.589 230.979 199.134C230.855 199.171 229.524 199.716 228.797 200.029C229.255 199.433 229.728 198.836 230.171 198.211C231.473 196.414 232.731 194.574 233.997 192.712L235.168 191.025C235.364 191.25 237.721 193.985 239.233 194.661C240.572 195.28 242.455 195.701 243.837 194.96C244.169 194.798 244.463 194.568 244.699 194.285C244.936 194.002 245.11 193.672 245.21 193.317C245.311 192.962 245.335 192.59 245.281 192.225C245.227 191.86 245.097 191.511 244.899 191.199C243.663 189.359 239.663 189.294 237.757 189.847C237.619 189.883 235.713 190.676 235.241 190.901C236.099 189.665 236.972 188.436 237.881 187.265C239.093 185.673 240.41 184.164 241.823 182.748C241.917 182.857 244.361 185.715 245.903 186.428C247.248 187.054 249.132 187.468 250.514 186.734C250.845 186.571 251.138 186.341 251.374 186.058C251.61 185.775 251.783 185.445 251.884 185.09C251.984 184.736 252.008 184.364 251.955 183.999C251.902 183.635 251.773 183.285 251.576 182.974C250.339 181.126 246.339 181.068 244.434 181.613C244.31 181.65 242.863 182.254 242.179 182.552L242.106 182.443C243.566 181.057 245.145 179.804 246.827 178.697C247.75 178.072 248.659 177.526 249.561 177.024C249.961 177.599 251.816 180.224 253.14 181.024C254.463 181.824 256.231 182.414 257.685 181.832C258.033 181.705 258.35 181.507 258.615 181.25C258.881 180.993 259.089 180.682 259.227 180.339C259.364 179.996 259.427 179.627 259.412 179.258C259.397 178.888 259.304 178.526 259.14 178.195C258.114 176.224 254.143 175.73 252.194 176.064C252.085 176.064 251.023 176.384 250.259 176.617L251.481 175.948C252.972 175.177 254.391 174.551 255.634 174.013C256.362 173.715 257.002 173.453 257.613 173.22C258.303 173.584 261.096 175.017 262.609 175.111C264.122 175.206 265.998 174.915 267.017 173.729C267.249 173.463 267.426 173.152 267.536 172.815C267.645 172.479 267.685 172.123 267.654 171.771C267.623 171.418 267.521 171.076 267.354 170.763C267.187 170.451 266.958 170.176 266.682 169.955Z" fill="#4987FA"/>
<path d="M215.596 156.972C216.65 158.354 220.105 160.151 220.112 160.151C220.12 160.151 220.607 157.518 220.614 157.343C220.731 155.365 219.785 151.481 217.705 150.681C217.358 150.558 216.988 150.509 216.62 150.538C216.253 150.567 215.895 150.673 215.571 150.85C215.248 151.026 214.965 151.269 214.741 151.562C214.517 151.855 214.357 152.191 214.272 152.55C213.865 154.056 214.73 155.801 215.596 156.972Z" fill="#4987FA"/>
<g opacity="0.5">
<path opacity="0.5" d="M249.692 176.719C249.692 176.755 251.561 174.792 251.663 174.653C252.849 173.068 254.209 169.3 252.921 167.489C252.7 167.195 252.418 166.951 252.096 166.773C251.774 166.595 251.417 166.486 251.05 166.455C250.683 166.423 250.314 166.469 249.966 166.59C249.618 166.711 249.299 166.903 249.03 167.155C247.852 168.188 247.576 170.1 247.678 171.577C247.801 173.308 249.692 176.712 249.692 176.719Z" fill="white"/>
<path opacity="0.5" d="M266.682 169.955C264.864 168.682 261.111 170.071 259.533 171.264C259.394 171.373 257.445 173.235 257.482 173.249H257.525C256.929 173.468 256.296 173.7 255.605 173.977C254.34 174.486 252.914 175.082 251.401 175.824C249.768 176.618 248.18 177.502 246.645 178.472C244.924 179.552 243.303 180.783 241.801 182.152C241.782 182.167 241.765 182.184 241.75 182.203C242.07 181.643 242.921 180.021 242.972 179.904C243.699 178.057 244.012 174.086 242.295 172.668C242.002 172.444 241.664 172.284 241.305 172.199C240.946 172.114 240.572 172.105 240.21 172.174C239.847 172.243 239.502 172.387 239.199 172.597C238.895 172.807 238.64 173.079 238.448 173.395C237.59 174.704 237.822 176.617 238.317 178.013C238.87 179.592 241.379 182.195 241.583 182.377C240.085 183.806 238.685 185.334 237.393 186.952C236.666 187.89 235.902 188.857 235.211 189.861C235.473 189.367 235.706 188.916 235.728 188.85C236.455 187.01 236.768 183.032 235.051 181.613C234.758 181.39 234.422 181.23 234.063 181.145C233.704 181.06 233.331 181.052 232.969 181.12C232.607 181.189 232.263 181.333 231.96 181.543C231.657 181.754 231.402 182.025 231.211 182.341C230.346 183.643 230.586 185.563 231.073 186.952C231.56 188.341 233.67 190.639 234.23 191.228L233.379 192.349C232.069 194.174 230.775 195.985 229.444 197.745C228.978 198.363 228.498 198.96 227.989 199.549C228.222 199.105 228.418 198.734 228.44 198.676C229.168 196.829 229.48 192.858 227.764 191.403C227.471 191.178 227.133 191.017 226.774 190.932C226.414 190.846 226.041 190.837 225.677 190.906C225.314 190.975 224.97 191.119 224.666 191.33C224.363 191.541 224.107 191.814 223.916 192.13C223.051 193.44 223.291 195.352 223.785 196.749C224.28 198.145 226.171 200.211 226.833 200.916C226.324 201.513 225.815 202.102 225.291 202.655C224.927 203.025 224.607 203.382 224.215 203.753L223.102 204.8C222.374 205.44 221.647 206.109 220.883 206.72C220.374 207.149 219.887 207.542 219.429 207.942C219.894 207.338 220.796 206.124 220.883 206.015C221.703 204.476 222.113 202.753 222.076 201.011C222.173 200.843 222.256 200.668 222.324 200.487C222.459 200.144 222.522 199.776 222.507 199.408C222.491 199.039 222.399 198.678 222.235 198.347C222.071 198.017 221.839 197.724 221.555 197.489C221.271 197.254 220.941 197.081 220.585 196.982C218.403 196.451 215.421 199.091 214.381 200.778C214.323 200.88 213.77 202.029 213.443 202.764C213.567 202.305 213.705 201.854 213.829 201.382C214.09 200.444 214.323 199.498 214.556 198.472C214.658 197.978 214.767 197.476 214.876 196.974C214.985 196.472 215.05 195.934 215.145 195.411C215.327 194.189 215.458 192.945 215.567 191.687C216.389 191.912 219.32 192.676 220.789 192.414C222.258 192.152 224.055 191.498 224.796 190.123C224.984 189.805 225.103 189.452 225.145 189.085C225.186 188.718 225.15 188.347 225.038 187.995C224.926 187.644 224.741 187.32 224.495 187.045C224.249 186.77 223.948 186.55 223.611 186.399C221.56 185.541 218.192 187.701 216.905 189.207C216.825 189.301 216.025 190.487 215.596 191.149C215.654 190.421 215.712 189.636 215.749 188.865C215.836 186.683 215.865 184.406 215.901 182.166C215.901 181.483 215.901 180.799 215.945 180.115C216.236 180.195 219.705 181.177 221.349 180.923C222.804 180.704 224.615 180.013 225.364 178.632C225.549 178.313 225.665 177.959 225.705 177.593C225.745 177.226 225.708 176.855 225.595 176.504C225.483 176.153 225.298 175.83 225.053 175.555C224.807 175.28 224.507 175.059 224.171 174.908C222.127 174.057 218.752 176.217 217.465 177.722C217.371 177.831 216.221 179.541 215.945 179.992C215.981 178.486 216.032 176.981 216.141 175.504C216.282 173.508 216.549 171.524 216.941 169.562C217.08 169.562 220.694 170.638 222.382 170.377C223.836 170.158 225.64 169.467 226.389 168.086C226.575 167.767 226.692 167.414 226.732 167.048C226.772 166.682 226.735 166.311 226.624 165.96C226.512 165.609 226.328 165.286 226.083 165.01C225.839 164.735 225.539 164.514 225.204 164.362C223.153 163.511 219.778 165.664 218.498 167.176C218.411 167.271 217.531 168.573 217.131 169.198L217.014 169.155C217.464 167.19 218.089 165.269 218.883 163.416C219.305 162.391 219.763 161.438 220.236 160.507C220.891 160.769 223.873 161.962 225.429 161.874C226.986 161.787 228.775 161.322 229.669 160.034C229.889 159.738 230.044 159.4 230.124 159.04C230.205 158.68 230.209 158.308 230.136 157.946C230.063 157.585 229.916 157.243 229.702 156.943C229.489 156.642 229.215 156.389 228.898 156.201C226.956 155.132 223.364 156.929 221.924 158.26C221.844 158.332 221.131 159.169 220.614 159.787C220.833 159.38 221.051 158.951 221.269 158.558C222.084 157.103 222.913 155.794 223.662 154.652C224.091 154.012 224.491 153.438 224.876 152.899C225.647 152.827 228.775 152.47 230.091 151.721C231.408 150.972 232.804 149.692 233 148.135C233.06 147.772 233.043 147.399 232.949 147.043C232.855 146.687 232.687 146.354 232.455 146.067C232.224 145.78 231.934 145.545 231.606 145.378C231.278 145.21 230.918 145.114 230.549 145.095C228.331 145.037 225.967 148.259 225.313 150.128C225.255 150.296 224.658 152.921 224.695 152.914H224.745C224.367 153.399 223.967 153.952 223.545 154.572C222.767 155.7 221.902 156.98 221.058 158.434C220.13 159.994 219.292 161.607 218.549 163.264C217.711 165.116 217.037 167.039 216.534 169.009C216.538 169.033 216.538 169.058 216.534 169.082C216.534 168.435 216.316 166.624 216.287 166.485C215.88 164.551 213.938 161.045 211.734 160.827C211.366 160.799 210.997 160.849 210.649 160.974C210.302 161.098 209.985 161.295 209.719 161.55C209.453 161.805 209.243 162.114 209.104 162.455C208.965 162.797 208.9 163.164 208.912 163.533C208.912 165.096 210.17 166.565 211.348 167.453C212.679 168.464 216.207 169.257 216.491 169.315C216.034 171.335 215.711 173.383 215.523 175.446C215.414 176.646 215.334 177.853 215.269 179.082C215.218 178.522 215.167 178.021 215.152 177.955C214.738 176.013 212.796 172.515 210.592 172.289C210.224 172.262 209.855 172.312 209.508 172.436C209.16 172.561 208.843 172.757 208.577 173.012C208.311 173.268 208.101 173.576 207.962 173.918C207.823 174.259 207.758 174.626 207.77 174.995C207.77 176.559 209.028 178.028 210.207 178.922C211.385 179.817 214.403 180.559 215.196 180.748C215.196 181.213 215.152 181.679 215.138 182.144C215.05 184.385 214.978 186.625 214.84 188.814C214.789 189.585 214.709 190.348 214.636 191.105C214.592 190.61 214.541 190.188 214.534 190.13C214.12 188.188 212.178 184.69 209.974 184.465C209.606 184.437 209.237 184.487 208.889 184.611C208.542 184.736 208.225 184.932 207.959 185.187C207.693 185.443 207.483 185.751 207.344 186.093C207.205 186.434 207.14 186.801 207.152 187.17C207.152 188.741 208.41 190.203 209.588 191.098C210.767 191.992 213.494 192.669 214.432 192.887C214.338 193.665 214.236 194.443 214.105 195.185C214.003 195.694 213.945 196.196 213.814 196.698L213.465 198.152C213.203 199.091 212.949 200.065 212.672 200.974C212.483 201.607 212.294 202.211 212.105 202.822C212.163 202.051 212.243 200.545 212.236 200.414C212.127 198.443 210.738 194.683 208.599 194.13C208.24 194.048 207.868 194.043 207.507 194.114C207.146 194.185 206.803 194.331 206.502 194.543C206.201 194.755 205.948 195.028 205.759 195.344C205.57 195.66 205.45 196.012 205.406 196.378C205.166 197.927 206.185 199.563 207.217 200.625C208.25 201.687 211.581 203.076 211.989 203.236C211.668 204.24 211.356 205.207 211.043 206.146C209.959 209.309 208.941 211.906 208.206 213.71C208.206 213.775 208.156 213.833 208.126 213.891L209.45 214.619C209.494 214.502 209.545 214.386 209.588 214.262C210.316 212.422 211.268 209.775 212.287 206.553C212.614 205.535 212.941 204.444 213.269 203.316C214.378 203.455 215.496 203.528 216.614 203.535C217.014 205.156 218.869 207.818 219.109 208.16C218.294 208.822 217.494 209.462 216.731 210.051C214.083 212.095 211.799 213.688 210.185 214.793L209.996 214.924L211.45 215.724C213.021 214.597 215.087 213.033 217.538 211.084C218.367 210.415 219.247 209.68 220.134 208.902C220.462 209.178 223.116 211.433 224.687 211.884C226.106 212.291 228.033 212.422 229.284 211.484C229.586 211.273 229.841 211.001 230.031 210.686C230.221 210.37 230.343 210.018 230.388 209.653C230.433 209.287 230.401 208.916 230.294 208.564C230.186 208.211 230.006 207.886 229.764 207.607C228.266 205.971 224.302 206.517 222.491 207.346C222.389 207.397 221.298 208.073 220.614 208.48C220.978 208.167 221.342 207.869 221.698 207.542C222.425 206.909 223.153 206.247 223.924 205.535L225.015 204.466C225.386 204.109 225.742 203.695 226.106 203.309C226.935 202.393 227.727 201.425 228.506 200.436C229.073 201.076 231.102 203.345 232.448 203.956C233.793 204.567 235.677 204.989 237.059 204.255C237.389 204.091 237.681 203.861 237.916 203.577C238.152 203.294 238.325 202.965 238.425 202.61C238.525 202.256 238.55 201.885 238.497 201.52C238.445 201.156 238.317 200.806 238.121 200.494C236.884 198.654 232.884 198.589 230.979 199.134C230.855 199.171 229.524 199.716 228.797 200.029C229.255 199.433 229.728 198.836 230.171 198.211C231.473 196.414 232.731 194.574 233.997 192.712L235.168 191.025C235.364 191.25 237.721 193.985 239.233 194.661C240.572 195.28 242.455 195.701 243.837 194.96C244.169 194.798 244.463 194.568 244.699 194.285C244.936 194.002 245.11 193.672 245.21 193.317C245.311 192.962 245.335 192.59 245.281 192.225C245.227 191.86 245.097 191.511 244.899 191.199C243.663 189.359 239.663 189.294 237.757 189.847C237.619 189.883 235.713 190.676 235.241 190.901C236.099 189.665 236.972 188.436 237.881 187.265C239.093 185.673 240.41 184.164 241.823 182.748C241.917 182.857 244.361 185.715 245.903 186.428C247.248 187.054 249.132 187.468 250.514 186.734C250.845 186.571 251.138 186.341 251.374 186.058C251.61 185.775 251.783 185.445 251.884 185.09C251.984 184.736 252.008 184.364 251.955 183.999C251.902 183.635 251.773 183.285 251.576 182.974C250.339 181.126 246.339 181.068 244.434 181.613C244.31 181.65 242.863 182.254 242.179 182.552L242.106 182.443C243.566 181.057 245.145 179.804 246.827 178.697C247.75 178.072 248.659 177.526 249.561 177.024C249.961 177.599 251.816 180.224 253.14 181.024C254.463 181.824 256.231 182.414 257.685 181.832C258.033 181.705 258.35 181.507 258.615 181.25C258.881 180.993 259.089 180.682 259.227 180.339C259.364 179.996 259.427 179.627 259.412 179.258C259.397 178.888 259.304 178.526 259.14 178.195C258.114 176.224 254.143 175.73 252.194 176.064C252.085 176.064 251.023 176.384 250.259 176.617L251.481 175.948C252.972 175.177 254.391 174.551 255.634 174.013C256.362 173.715 257.002 173.453 257.613 173.22C258.303 173.584 261.096 175.017 262.609 175.111C264.122 175.206 265.998 174.915 267.017 173.729C267.249 173.463 267.426 173.152 267.536 172.815C267.645 172.479 267.685 172.123 267.654 171.771C267.623 171.418 267.521 171.076 267.354 170.763C267.187 170.451 266.958 170.176 266.682 169.955Z" fill="white"/>
<path opacity="0.5" d="M215.596 156.972C216.651 158.354 220.105 160.151 220.113 160.151C220.12 160.151 220.607 157.518 220.614 157.343C220.731 155.365 219.785 151.481 217.705 150.681C217.358 150.558 216.988 150.509 216.62 150.538C216.253 150.567 215.895 150.673 215.572 150.85C215.248 151.026 214.965 151.269 214.741 151.562C214.517 151.855 214.357 152.191 214.272 152.55C213.865 154.056 214.731 155.801 215.596 156.972Z" fill="white"/>
</g>
<path d="M73.6327 120.2C73.6763 120.2 73.0654 117.152 72.9999 116.97C72.2726 114.788 69.6543 110.999 67.0942 111.006C66.6689 111.02 66.2513 111.122 65.8683 111.308C65.4854 111.493 65.1457 111.757 64.8713 112.082C64.5969 112.407 64.394 112.786 64.2758 113.195C64.1575 113.604 64.1266 114.033 64.1849 114.454C64.374 116.25 65.9887 117.785 67.4505 118.665C69.1524 119.705 73.6327 120.2 73.6327 120.2Z" fill="#4987FA"/>
<path d="M78.5857 99.6822C76.171 100.548 74.9491 105.013 75.0509 107.297C75.0509 107.494 75.5091 110.57 75.5528 110.548H75.6037C75.4073 111.276 75.2109 112.003 75.0073 112.839C74.6436 114.374 74.28 116.112 73.9454 118.032C73.6 120.1 73.3718 122.186 73.2618 124.28C73.1341 126.622 73.2144 128.971 73.5018 131.298C73.5053 131.327 73.5053 131.357 73.5018 131.386C73.189 130.702 72.2435 128.833 72.149 128.695C70.898 126.782 67.3488 123.822 64.8759 124.505C64.4695 124.631 64.0941 124.841 63.7739 125.121C63.4536 125.401 63.1957 125.745 63.0168 126.131C62.8379 126.517 62.7419 126.936 62.7352 127.361C62.7284 127.787 62.811 128.209 62.9776 128.6C63.6322 130.28 65.5959 131.335 67.2397 131.8C69.0943 132.331 73.2254 131.706 73.5527 131.655C73.9021 134.018 74.4099 136.356 75.0728 138.651C75.451 139.99 75.8728 141.328 76.3165 142.666C76.0255 142.084 75.7564 141.568 75.7128 141.502C74.4545 139.59 70.9126 136.629 68.4397 137.313C68.0329 137.437 67.6569 137.645 67.336 137.925C67.0152 138.204 66.7568 138.547 66.5777 138.933C66.3985 139.319 66.3027 139.738 66.2965 140.163C66.2903 140.588 66.3737 141.01 66.5414 141.401C67.196 143.088 69.1597 144.143 70.8035 144.608C72.4472 145.074 75.9964 144.608 76.9347 144.484C77.1092 144.994 77.2765 145.51 77.451 146.019C78.2947 148.463 79.153 150.907 79.9166 153.292C80.1857 154.143 80.4185 154.994 80.6439 155.838C80.3821 155.321 80.1639 154.892 80.1203 154.834C78.8693 152.921 75.32 149.961 72.8472 150.645C72.4404 150.769 72.0644 150.977 71.7435 151.256C71.4227 151.535 71.1643 151.879 70.9851 152.264C70.806 152.65 70.7102 153.069 70.704 153.494C70.6977 153.92 70.7812 154.341 70.9489 154.732C71.6035 156.42 73.5672 157.474 75.2109 157.94C76.8547 158.405 80.0621 157.998 81.1749 157.838C81.3931 158.718 81.6113 159.591 81.7785 160.449C81.8876 161.038 82.0258 161.598 82.0985 162.202C82.1713 162.805 82.2586 163.373 82.3458 163.947C82.4622 165.067 82.5858 166.224 82.6731 167.322C82.7386 168.049 82.7822 168.776 82.8331 169.504C82.5786 168.653 82.0331 166.995 81.9749 166.864C81.0693 165.066 79.72 163.529 78.0547 162.398C77.9618 162.194 77.8498 161.999 77.7201 161.816C77.4897 161.458 77.1867 161.152 76.8305 160.919C76.4744 160.685 76.0731 160.529 75.6528 160.46C75.2325 160.392 74.8024 160.412 74.3905 160.521C73.9786 160.629 73.5941 160.822 73.2618 161.089C71.3271 162.769 71.8071 167.358 72.7017 169.467C72.7526 169.591 73.4799 170.871 73.9454 171.649C73.5963 171.22 73.269 170.798 72.9054 170.355C72.1781 169.489 71.4508 168.638 70.6653 167.722L69.4652 166.42C69.0725 165.976 68.607 165.562 68.1706 165.125C67.1524 164.136 66.0614 163.183 64.9486 162.216C65.6759 161.591 68.3815 159.307 69.1525 157.801C69.9234 156.296 70.4616 154.114 69.6616 152.492C69.4866 152.104 69.2319 151.758 68.9139 151.475C68.596 151.192 68.222 150.98 67.8163 150.851C67.4107 150.723 66.9825 150.682 66.5598 150.73C66.1371 150.778 65.7294 150.915 65.3632 151.132C63.1813 152.492 62.9776 157.103 63.5376 159.321C63.574 159.46 64.1559 161.002 64.4904 161.845C63.814 161.292 63.1449 160.732 62.4467 160.187C60.4175 158.623 58.3229 157.103 56.2355 155.576C55.5954 155.11 54.9627 154.63 54.3299 154.165C54.6063 153.939 57.8428 151.328 58.6938 149.612C59.4575 148.085 60.0102 145.924 59.2102 144.303C59.0352 143.915 58.7805 143.568 58.4625 143.285C58.1445 143.003 57.7705 142.79 57.3649 142.662C56.9593 142.534 56.5311 142.492 56.1084 142.541C55.6857 142.589 55.278 142.726 54.9118 142.943C52.7299 144.303 52.5189 148.914 53.0862 151.132C53.0862 151.299 53.9663 153.525 54.2063 154.078C52.8099 153.038 51.4352 151.99 50.1115 150.899C48.3157 149.439 46.6151 147.864 45.0204 146.186C45.1513 146.084 48.5406 143.372 49.3842 141.612C50.1479 140.084 50.7007 137.924 49.9006 136.302C49.7257 135.914 49.4709 135.568 49.153 135.285C48.835 135.002 48.461 134.79 48.0554 134.662C47.6497 134.533 47.2216 134.492 46.7989 134.54C46.3762 134.589 45.9684 134.726 45.6022 134.942C43.4203 136.302 43.2094 140.913 43.7767 143.132C43.7767 143.277 44.4531 144.972 44.7731 145.772L44.6495 145.844C43.0978 144.111 41.7054 142.242 40.4893 140.259C39.8056 139.182 39.2165 138.077 38.6637 137.051C39.3401 136.608 42.4457 134.564 43.413 133.066C44.3804 131.567 45.1222 129.546 44.504 127.851C44.3727 127.446 44.1576 127.073 43.8728 126.757C43.588 126.441 43.2398 126.188 42.8508 126.015C42.4618 125.842 42.0408 125.753 41.6151 125.753C41.1895 125.754 40.7687 125.844 40.3802 126.018C38.0746 127.138 37.3546 131.698 37.6673 133.96C37.6673 134.084 37.9946 135.32 38.2346 136.215C37.9946 135.735 37.74 135.24 37.5073 134.76C36.6636 133.015 36.0018 131.371 35.4199 129.902C35.0999 129.065 34.8308 128.309 34.5835 127.589C35.0272 126.811 36.7654 123.632 36.94 121.894C37.1146 120.156 36.8454 117.981 35.4854 116.759C35.1821 116.461 34.8195 116.23 34.4211 116.081C34.0227 115.932 33.5974 115.868 33.1728 115.894C32.7482 115.921 32.3339 116.036 31.9567 116.232C31.5795 116.429 31.2478 116.703 30.9833 117.036C29.456 119.087 30.9179 123.472 32.2416 125.334C32.3507 125.494 34.4235 127.815 34.4235 127.771V127.72C34.649 128.447 34.8963 129.175 35.1508 129.96C35.6963 131.415 36.3291 133.109 37.1364 134.877C37.9831 136.794 38.9424 138.659 40.0092 140.462C41.1972 142.488 42.5601 144.406 44.0822 146.194L44.1403 146.252C43.5003 145.859 41.682 144.797 41.5293 144.754C39.4274 143.852 34.8381 143.343 33.1507 145.27C32.8807 145.599 32.6828 145.981 32.5699 146.392C32.457 146.803 32.4317 147.232 32.4954 147.653C32.5592 148.074 32.7107 148.477 32.9401 148.836C33.1695 149.195 33.4717 149.501 33.8271 149.736C35.2817 150.776 37.5218 150.572 39.1437 150.056C40.9838 149.474 44.0822 146.674 44.3294 146.419C45.9141 148.195 47.6149 149.865 49.4206 151.416C50.4752 152.325 51.5662 153.212 52.6717 154.078L51.5298 153.438C49.4279 152.536 44.8386 152.027 43.1512 153.961C42.881 154.289 42.6827 154.671 42.5693 155.08C42.456 155.49 42.43 155.919 42.4931 156.339C42.5562 156.76 42.7069 157.162 42.9356 157.521C43.1642 157.879 43.4657 158.185 43.8203 158.42C45.2749 159.467 47.5151 159.256 49.1442 158.74C50.7734 158.223 53.5081 155.889 54.1917 155.256L55.4718 156.252C57.5301 157.823 59.5884 159.387 61.5594 160.98C62.2503 161.54 62.9122 162.122 63.5813 162.696C63.0794 162.413 62.6576 162.173 62.5849 162.143C60.4902 161.242 55.8936 160.732 54.2136 162.66C53.9432 162.989 53.7448 163.37 53.6314 163.781C53.5179 164.191 53.4919 164.621 53.555 165.041C53.6181 165.462 53.7688 165.865 53.9976 166.224C54.2263 166.583 54.5278 166.89 54.8827 167.126C56.3373 168.166 58.5774 167.962 60.2066 167.446C61.8357 166.929 64.2868 164.813 65.1232 164.071C65.7923 164.682 66.4542 165.293 67.0724 165.918C67.4869 166.347 67.9088 166.74 68.3015 167.198L69.4725 168.522C70.1998 169.395 70.9271 170.289 71.6035 171.155C72.0763 171.751 72.5199 172.333 72.9636 172.915C72.2799 172.348 70.9126 171.264 70.7816 171.191C68.8397 169.977 64.3813 168.776 62.4249 170.464C62.1077 170.748 61.854 171.095 61.6804 171.484C61.5067 171.872 61.4169 172.293 61.4169 172.719C61.4169 173.144 61.5067 173.565 61.6804 173.953C61.854 174.342 62.1077 174.689 62.4249 174.973C63.7267 176.231 65.9523 176.362 67.6397 176.1C69.4943 175.81 72.8617 173.613 73.2763 173.337C74.0036 174.304 74.7309 175.25 75.3637 176.159C77.6329 179.286 79.4002 181.977 80.6076 183.875L80.7312 184.072L82.2949 183.308L82.0476 182.937C80.7821 181.046 78.942 178.362 76.5856 175.257C75.8582 174.268 75.0364 173.235 74.1927 172.18C75.0586 171.223 75.8696 170.218 76.6219 169.169C78.4184 169.897 82.1713 169.897 82.6513 169.897C82.7313 171.111 82.7968 172.289 82.8404 173.402C83.0004 177.257 82.9931 180.479 82.9495 182.734V182.995L84.6659 182.159C84.6659 179.919 84.5859 176.901 84.3532 173.322C84.2805 172.093 84.1787 170.777 84.055 169.431C84.535 169.315 88.4189 168.311 89.8735 167.14C91.2044 166.071 92.6082 164.34 92.5645 162.536C92.5677 162.11 92.4811 161.688 92.3104 161.298C92.1397 160.908 91.8887 160.558 91.5738 160.271C91.2589 159.984 90.887 159.767 90.4825 159.634C90.0781 159.5 89.65 159.453 89.2262 159.496C86.6879 159.823 84.5569 163.918 84.135 166.173C84.135 166.304 84.0041 167.773 83.9459 168.696C83.895 168.151 83.8514 167.613 83.7932 167.045C83.6768 165.933 83.5313 164.813 83.3786 163.62L83.095 161.867C83.015 161.285 82.8549 160.682 82.7313 160.078C82.4258 158.681 82.0476 157.292 81.6331 155.889C82.6077 155.794 86.0842 155.379 87.5752 154.529C89.0662 153.678 90.7026 152.179 90.9281 150.383C90.9961 149.963 90.9748 149.533 90.8654 149.122C90.7561 148.71 90.5612 148.327 90.2935 147.996C90.0258 147.665 89.6913 147.394 89.3119 147.202C88.9324 147.009 88.5166 146.898 88.0916 146.877C85.5314 146.812 82.804 150.514 82.0549 152.696C82.004 152.827 81.6403 154.441 81.4512 155.329C81.1967 154.492 80.9494 153.656 80.6658 152.812C79.8366 150.39 78.9275 147.968 78.0256 145.539L77.2183 143.313C77.5674 143.277 81.7131 142.884 83.3786 141.924C84.8332 141.073 86.506 139.575 86.7315 137.786C86.7995 137.365 86.7782 136.935 86.6689 136.524C86.5596 136.112 86.3648 135.728 86.0972 135.396C85.8296 135.065 85.4952 134.794 85.1158 134.6C84.7363 134.407 84.3204 134.295 83.895 134.273C81.3349 134.215 78.6075 137.91 77.8583 140.091C77.8002 140.259 77.2765 142.572 77.1674 143.168C76.5783 141.532 76.0037 139.895 75.5091 138.259C74.8188 136.054 74.2746 133.807 73.88 131.531C74.04 131.531 78.3675 131.124 80.0766 130.142C81.5312 129.291 83.2041 127.793 83.4295 125.996C83.4964 125.576 83.4742 125.147 83.3644 124.736C83.2546 124.325 83.0596 123.942 82.7921 123.612C82.5246 123.281 82.1906 123.01 81.8118 122.817C81.4329 122.624 81.0177 122.513 80.593 122.491C78.0329 122.425 75.3055 126.127 74.5564 128.309C74.5055 128.455 74.1054 130.215 73.9309 131.058H73.7854C73.4517 128.757 73.3226 126.43 73.3999 124.105C73.3999 122.825 73.5236 121.603 73.64 120.418C74.4545 120.418 78.1711 120.418 79.8003 119.69C81.4294 118.963 83.175 117.705 83.5968 115.945C83.7107 115.535 83.7367 115.105 83.6731 114.684C83.6095 114.263 83.4577 113.86 83.2277 113.502C82.9978 113.143 82.6947 112.837 82.3385 112.604C81.9822 112.371 81.5808 112.216 81.1603 112.148C78.622 111.799 75.5019 115.21 74.52 117.239C74.4618 117.356 74.0473 118.556 73.7491 119.421C73.8145 118.883 73.8727 118.33 73.9382 117.821C74.2 115.901 74.5564 114.185 74.8837 112.621C75.08 111.748 75.2691 110.963 75.4582 110.228C76.2583 109.821 79.473 108.141 80.5494 106.773C81.6258 105.406 82.6222 103.457 82.1858 101.682C81.9476 100.957 81.4446 100.348 80.7773 99.9775C80.1099 99.6067 79.3273 99.5013 78.5857 99.6822Z" fill="#4987FA"/>
<path d="M32.2852 139.16C34.2853 139.08 38.2855 137.029 38.2927 137.029C38.3 137.029 36.1108 134.804 35.9799 134.68C34.1907 133.226 29.8996 131.553 27.7686 132.964C27.4199 133.208 27.1267 133.524 26.9083 133.889C26.6898 134.255 26.551 134.662 26.5009 135.085C26.4508 135.508 26.4905 135.937 26.6174 136.343C26.7444 136.75 26.9558 137.125 27.2376 137.444C28.3868 138.848 30.576 139.255 32.2852 139.16Z" fill="#4987FA"/>
<g opacity="0.5">
<path opacity="0.5" d="M73.6327 120.2C73.6763 120.2 73.0654 117.152 72.9999 116.97C72.2726 114.789 69.6543 110.999 67.0942 111.007C66.6689 111.02 66.2513 111.122 65.8683 111.308C65.4854 111.493 65.1457 111.757 64.8713 112.082C64.5969 112.407 64.394 112.786 64.2758 113.195C64.1575 113.604 64.1266 114.033 64.1849 114.454C64.374 116.25 65.9887 117.785 67.4505 118.665C69.1524 119.705 73.6327 120.2 73.6327 120.2Z" fill="white"/>
<path opacity="0.5" d="M78.5855 99.6823C76.1709 100.548 74.949 105.013 75.0508 107.297C75.0508 107.494 75.509 110.57 75.5527 110.548H75.6036C75.4072 111.276 75.2108 112.003 75.0072 112.839C74.6435 114.374 74.2799 116.112 73.9453 118.032C73.5999 120.1 73.3717 122.186 73.2616 124.28C73.134 126.622 73.2143 128.971 73.5017 131.298C73.5052 131.327 73.5052 131.357 73.5017 131.386C73.1889 130.702 72.2434 128.833 72.1489 128.695C70.8979 126.782 67.3486 123.822 64.8758 124.505C64.4694 124.631 64.094 124.841 63.7737 125.121C63.4535 125.401 63.1956 125.745 63.0166 126.131C62.8377 126.517 62.7418 126.936 62.7351 127.361C62.7283 127.787 62.8109 128.209 62.9775 128.6C63.6321 130.28 65.5958 131.335 67.2395 131.8C69.0942 132.331 73.2253 131.706 73.5526 131.655C73.9019 134.018 74.4098 136.356 75.0726 138.651C75.4508 139.99 75.8727 141.328 76.3163 142.666C76.0254 142.084 75.7563 141.568 75.7127 141.502C74.4544 139.59 70.9124 136.63 68.4396 137.313C68.0328 137.437 67.6567 137.646 67.3359 137.925C67.0151 138.204 66.7566 138.547 66.5775 138.933C66.3984 139.319 66.3026 139.738 66.2964 140.163C66.2901 140.588 66.3736 141.01 66.5413 141.401C67.1959 143.088 69.1596 144.143 70.8033 144.608C72.4471 145.074 75.9963 144.608 76.9345 144.484C77.1091 144.994 77.2764 145.51 77.4509 146.019C78.2946 148.463 79.1528 150.907 79.9165 153.292C80.1856 154.143 80.4183 154.994 80.6438 155.838C80.382 155.321 80.1638 154.892 80.1201 154.834C78.8692 152.921 75.3199 149.961 72.8471 150.645C72.4403 150.769 72.0642 150.977 71.7434 151.256C71.4226 151.535 71.1641 151.879 70.985 152.265C70.8059 152.65 70.7101 153.069 70.7039 153.495C70.6976 153.92 70.7811 154.341 70.9488 154.732C71.6034 156.42 73.5671 157.474 75.2108 157.94C76.8545 158.405 80.062 157.998 81.1747 157.838C81.3929 158.718 81.6111 159.591 81.7784 160.449C81.8875 161.038 82.0257 161.598 82.0984 162.202C82.1712 162.805 82.2584 163.373 82.3457 163.947C82.4621 165.067 82.5857 166.224 82.673 167.322C82.7385 168.049 82.7821 168.777 82.833 169.504C82.5784 168.653 82.033 166.995 81.9748 166.864C81.0692 165.066 79.7199 163.529 78.0546 162.398C77.9617 162.194 77.8497 161.999 77.72 161.816C77.4896 161.458 77.1865 161.152 76.8304 160.919C76.4743 160.685 76.073 160.529 75.6527 160.46C75.2323 160.392 74.8023 160.412 74.3904 160.521C73.9785 160.629 73.5939 160.823 73.2616 161.089C71.327 162.769 71.807 167.358 72.7016 169.468C72.7525 169.591 73.4798 170.871 73.9453 171.649C73.5962 171.22 73.2689 170.798 72.9053 170.355C72.1779 169.489 71.4506 168.638 70.6651 167.722L69.4651 166.42C69.0723 165.976 68.6069 165.562 68.1705 165.125C67.1523 164.136 66.0613 163.184 64.9485 162.216C65.6758 161.591 68.3814 159.307 69.1523 157.801C69.9233 156.296 70.4615 154.114 69.6615 152.492C69.4865 152.104 69.2318 151.758 68.9138 151.475C68.5958 151.192 68.2218 150.98 67.8162 150.852C67.4106 150.723 66.9824 150.682 66.5597 150.73C66.137 150.779 65.7293 150.915 65.3631 151.132C63.1812 152.492 62.9775 157.103 63.5375 159.322C63.5739 159.46 64.1557 161.002 64.4903 161.845C63.8139 161.293 63.1448 160.733 62.4466 160.187C60.4174 158.623 58.3227 157.103 56.2354 155.576C55.5953 155.11 54.9626 154.63 54.3298 154.165C54.6062 153.939 57.8427 151.328 58.6937 149.612C59.4573 148.085 60.0101 145.925 59.21 144.303C59.0351 143.915 58.7803 143.568 58.4624 143.286C58.1444 143.003 57.7704 142.79 57.3648 142.662C56.9592 142.534 56.531 142.492 56.1083 142.541C55.6856 142.589 55.2778 142.726 54.9117 142.943C52.7297 144.303 52.5188 148.914 53.0861 151.132C53.0861 151.299 53.9662 153.525 54.2062 154.078C52.8097 153.038 51.4351 151.99 50.1114 150.899C48.3155 149.439 46.615 147.864 45.0203 146.186C45.1512 146.085 48.5404 143.372 49.3841 141.612C50.1478 140.084 50.7005 137.924 49.9005 136.302C49.7256 135.914 49.4708 135.568 49.1528 135.285C48.8349 135.002 48.4609 134.79 48.0552 134.662C47.6496 134.533 47.2215 134.492 46.7988 134.54C46.3761 134.589 45.9683 134.726 45.6021 134.942C43.4202 136.302 43.2093 140.913 43.7766 143.132C43.7766 143.277 44.453 144.972 44.773 145.772L44.6493 145.845C43.0977 144.111 41.7053 142.242 40.4891 140.259C39.8055 139.182 39.2163 138.077 38.6636 137.051C39.34 136.608 42.4456 134.564 43.4129 133.066C44.3802 131.567 45.1221 129.546 44.5039 127.851C44.3726 127.446 44.1575 127.073 43.8727 126.757C43.5879 126.441 43.2396 126.188 42.8507 126.015C42.4617 125.842 42.0407 125.753 41.615 125.754C41.1894 125.754 40.7686 125.844 40.38 126.018C38.0745 127.138 37.3544 131.698 37.6672 133.96C37.6672 134.084 37.9945 135.32 38.2345 136.215C37.9945 135.735 37.7399 135.24 37.5072 134.76C36.6635 133.015 36.0016 131.371 35.4198 129.902C35.0998 129.066 34.8307 128.309 34.5834 127.589C35.0271 126.811 36.7653 123.633 36.9399 121.894C37.1144 120.156 36.8453 117.981 35.4853 116.759C35.182 116.461 34.8194 116.23 34.421 116.081C34.0225 115.932 33.5972 115.868 33.1727 115.895C32.7481 115.921 32.3337 116.036 31.9565 116.232C31.5793 116.429 31.2477 116.703 30.9832 117.036C29.4559 119.087 30.9178 123.473 32.2415 125.334C32.3506 125.494 34.4234 127.815 34.4234 127.771V127.72C34.6489 128.447 34.8961 129.175 35.1507 129.96C35.6962 131.415 36.3289 133.109 37.1362 134.877C37.983 136.794 38.9423 138.659 40.0091 140.462C41.1971 142.488 42.5599 144.406 44.082 146.194L44.1402 146.252C43.5002 145.859 41.6819 144.797 41.5292 144.754C39.4273 143.852 34.838 143.343 33.1506 145.27C32.8806 145.599 32.6827 145.981 32.5698 146.392C32.4569 146.803 32.4315 147.232 32.4953 147.653C32.5591 148.074 32.7106 148.477 32.94 148.836C33.1694 149.195 33.4716 149.501 33.827 149.736C35.2816 150.776 37.5217 150.572 39.1436 150.056C40.9837 149.474 44.082 146.674 44.3293 146.419C45.914 148.195 47.6148 149.865 49.4205 151.416C50.4751 152.325 51.566 153.212 52.6715 154.078L51.5297 153.438C49.4278 152.536 44.8384 152.027 43.1511 153.961C42.8808 154.289 42.6826 154.671 42.5692 155.08C42.4558 155.49 42.4299 155.919 42.4929 156.339C42.556 156.76 42.7068 157.162 42.9355 157.521C43.1641 157.879 43.4655 158.185 43.8202 158.42C45.2748 159.467 47.5149 159.256 49.1441 158.74C50.7733 158.223 53.508 155.889 54.1916 155.256L55.4717 156.252C57.53 157.823 59.5882 159.387 61.5592 160.98C62.2502 161.54 62.912 162.122 63.5812 162.696C63.0793 162.413 62.6575 162.173 62.5848 162.144C60.4901 161.242 55.8935 160.733 54.2134 162.66C53.9431 162.989 53.7447 163.371 53.6313 163.781C53.5178 164.191 53.4918 164.621 53.5549 165.042C53.618 165.462 53.7687 165.866 53.9974 166.225C54.2261 166.584 54.5277 166.891 54.8826 167.126C56.3372 168.166 58.5773 167.962 60.2065 167.446C61.8356 166.929 64.2867 164.813 65.1231 164.071C65.7922 164.682 66.454 165.293 67.0722 165.918C67.4868 166.347 67.9086 166.74 68.3014 167.198L69.4724 168.522C70.1997 169.395 70.927 170.289 71.6034 171.155C72.0761 171.751 72.5198 172.333 72.9634 172.915C72.2798 172.348 70.9124 171.264 70.7815 171.191C68.8396 169.977 64.3812 168.777 62.4247 170.464C62.1076 170.748 61.8539 171.095 61.6802 171.484C61.5065 171.872 61.4168 172.293 61.4168 172.719C61.4168 173.144 61.5065 173.565 61.6802 173.953C61.8539 174.342 62.1076 174.689 62.4247 174.973C63.7266 176.231 65.9522 176.362 67.6395 176.101C69.4942 175.81 72.8616 173.613 73.2762 173.337C74.0035 174.304 74.7308 175.25 75.3636 176.159C77.6328 179.286 79.4001 181.977 80.6074 183.875L80.7311 184.072L82.2948 183.308L82.0475 182.937C80.782 181.046 78.9419 178.362 76.5854 175.257C75.8581 174.268 75.0363 173.235 74.1926 172.18C75.0585 171.223 75.8695 170.218 76.6218 169.169C78.4183 169.897 82.1712 169.897 82.6512 169.897C82.7312 171.111 82.7966 172.289 82.8403 173.402C83.0003 177.257 82.993 180.479 82.9494 182.734V182.995L84.6658 182.159C84.6658 179.919 84.5858 176.901 84.3531 173.322C84.2804 172.093 84.1785 170.777 84.0549 169.431C84.5349 169.315 88.4187 168.311 89.8734 167.14C91.2043 166.071 92.608 164.34 92.5644 162.536C92.5676 162.11 92.481 161.688 92.3103 161.298C92.1396 160.908 91.8886 160.558 91.5737 160.271C91.2587 159.984 90.8869 159.767 90.4824 159.634C90.0779 159.5 89.6498 159.453 89.226 159.496C86.6877 159.823 84.5567 163.918 84.1349 166.173C84.1349 166.304 84.004 167.773 83.9458 168.697C83.8949 168.151 83.8512 167.613 83.7931 167.046C83.6767 165.933 83.5312 164.813 83.3785 163.62L83.0948 161.867C83.0148 161.285 82.8548 160.682 82.7312 160.078C82.4257 158.682 82.0475 157.292 81.6329 155.889C82.6075 155.794 86.0841 155.38 87.5751 154.529C89.066 153.678 90.7025 152.179 90.9279 150.383C90.996 149.963 90.9746 149.533 90.8653 149.122C90.756 148.71 90.5611 148.327 90.2934 147.996C90.0257 147.665 89.6912 147.395 89.3117 147.202C88.9323 147.009 88.5165 146.898 88.0914 146.877C85.5313 146.812 82.8039 150.514 82.0548 152.696C82.0039 152.827 81.6402 154.441 81.4511 155.329C81.1966 154.492 80.9493 153.656 80.6656 152.812C79.8365 150.39 78.9274 147.968 78.0255 145.539L77.2182 143.313C77.5673 143.277 81.713 142.884 83.3785 141.924C84.8331 141.073 86.5059 139.575 86.7314 137.786C86.7994 137.365 86.778 136.935 86.6687 136.524C86.5594 136.112 86.3647 135.728 86.0971 135.397C85.8295 135.065 85.4951 134.794 85.1156 134.6C84.7362 134.407 84.3203 134.295 83.8949 134.273C81.3348 134.215 78.6073 137.91 77.8582 140.092C77.8 140.259 77.2764 142.572 77.1673 143.168C76.5782 141.532 76.0036 139.895 75.509 138.259C74.8187 136.054 74.2745 133.807 73.8798 131.531C74.0399 131.531 78.3673 131.124 80.0765 130.142C81.5311 129.291 83.2039 127.793 83.4294 125.996C83.4963 125.576 83.4741 125.147 83.3643 124.736C83.2545 124.325 83.0595 123.942 82.792 123.612C82.5245 123.281 82.1905 123.01 81.8116 122.817C81.4328 122.624 81.0176 122.513 80.5929 122.491C78.0328 122.425 75.3054 126.127 74.5562 128.309C74.5053 128.455 74.1053 130.215 73.9308 131.058H73.7853C73.4515 128.757 73.3225 126.43 73.3998 124.105C73.3998 122.825 73.5235 121.603 73.6398 120.418C74.4544 120.418 78.171 120.418 79.8001 119.691C81.4293 118.963 83.1748 117.705 83.5967 115.945C83.7105 115.535 83.7365 115.105 83.6729 114.684C83.6093 114.263 83.4576 113.86 83.2276 113.502C82.9976 113.143 82.6946 112.838 82.3384 112.604C81.9821 112.371 81.5806 112.216 81.1602 112.148C78.6219 111.799 75.5017 115.21 74.5199 117.24C74.4617 117.356 74.0471 118.556 73.7489 119.421C73.8144 118.883 73.8726 118.33 73.938 117.821C74.1999 115.901 74.5562 114.185 74.8835 112.621C75.0799 111.748 75.269 110.963 75.4581 110.228C76.2581 109.821 79.4728 108.141 80.5493 106.774C81.6257 105.406 82.6221 103.457 82.1857 101.682C81.9475 100.957 81.4445 100.348 80.7772 99.9776C80.1098 99.6068 79.3272 99.5014 78.5855 99.6823Z" fill="white"/>
<path opacity="0.5" d="M32.2852 139.161C34.2853 139.081 38.2855 137.03 38.2927 137.03C38.3 137.03 36.1108 134.804 35.9799 134.68C34.1907 133.226 29.8996 131.553 27.7686 132.964C27.4199 133.208 27.1267 133.524 26.9083 133.889C26.6898 134.255 26.551 134.662 26.5009 135.085C26.4508 135.508 26.4905 135.937 26.6174 136.343C26.7444 136.75 26.9558 137.125 27.2376 137.444C28.3868 138.848 30.576 139.255 32.2852 139.161Z" fill="white"/>
</g>
<path d="M56.73 194.087C56.73 194.087 68.8761 164.813 75.6764 166.086C82.4767 167.358 64.0395 212.757 64.0395 212.757C64.0395 212.757 85.4078 172.45 99.983 172.45C114.558 172.45 94.6373 216.997 76.1855 231.849C76.1855 231.849 105.321 200.451 122.319 207.244C139.316 214.037 88.3243 245.849 88.3243 245.849C88.3243 245.849 117.948 236.518 114.551 243.733C111.154 250.948 101.925 252.213 101.925 252.213L135.432 253.915H18.8518L45.0785 251.37C45.0785 251.37 17.8772 237.791 25.1648 232.278C32.4525 226.765 48.4751 238.642 48.4751 238.642C48.4751 238.642 20.7937 208.095 26.1322 196.633C31.4706 185.17 55.2754 217.426 55.2754 217.426C55.2754 217.426 35.849 176.268 39.7328 169.075C43.6166 161.882 56.73 194.087 56.73 194.087Z" fill="#4987FA"/>
<path opacity="0.5" d="M56.73 194.087C56.73 194.087 68.8761 164.813 75.6764 166.086C82.4767 167.358 64.0395 212.757 64.0395 212.757C64.0395 212.757 85.4078 172.45 99.983 172.45C114.558 172.45 94.6373 216.997 76.1855 231.849C76.1855 231.849 105.321 200.451 122.319 207.244C139.316 214.037 88.3243 245.849 88.3243 245.849C88.3243 245.849 117.948 236.518 114.551 243.733C111.154 250.948 101.925 252.213 101.925 252.213L135.432 253.915H18.8518L45.0785 251.37C45.0785 251.37 17.8772 237.791 25.1648 232.278C32.4525 226.765 48.4751 238.642 48.4751 238.642C48.4751 238.642 20.7937 208.095 26.1322 196.633C31.4706 185.17 55.2754 217.426 55.2754 217.426C55.2754 217.426 35.849 176.268 39.7328 169.075C43.6166 161.882 56.73 194.087 56.73 194.087Z" fill="white"/>
<path d="M52.8462 195.629C63.5303 227.201 63.5303 249.544 63.5303 249.544C63.5303 249.544 50.9043 250.024 37.7909 240.315" stroke="#263238" stroke-linecap="round" stroke-linejoin="round"/>
<path d="M58.1919 212.633C60.3883 203.194 63.3061 193.937 66.9196 184.945" stroke="#263238" stroke-linecap="round" stroke-linejoin="round"/>
<path d="M89.7571 194.174L62.563 234.489C62.563 234.489 44.1039 218.946 37.7909 210.204" stroke="#263238" stroke-linecap="round" stroke-linejoin="round"/>
<path d="M63.0503 244.199C63.0503 244.199 91.699 230.598 103.358 222.83" stroke="#263238" stroke-linecap="round" stroke-linejoin="round"/>
<path d="M213.414 194.087C213.414 194.087 201.275 164.813 194.504 166.086C187.733 167.358 206.141 212.757 206.141 212.757C206.141 212.757 184.773 172.45 170.205 172.45C155.637 172.45 175.543 216.997 194.002 231.849C194.002 231.849 164.859 200.451 147.862 207.244C130.865 214.037 181.863 245.849 181.863 245.849C181.863 245.849 152.233 236.518 155.637 243.733C159.04 250.948 168.263 252.213 168.263 252.213L134.727 253.915H251.299L225.073 251.37C225.073 251.37 252.267 237.791 244.986 232.278C237.706 226.765 221.669 238.642 221.669 238.642C221.669 238.642 249.358 208.095 244.012 196.633C238.666 185.17 214.869 217.426 214.869 217.426C214.869 217.426 234.302 176.268 230.411 169.053C226.52 161.838 213.414 194.087 213.414 194.087Z" fill="#4987FA"/>
<path opacity="0.5" d="M213.414 194.087C213.414 194.087 201.275 164.813 194.504 166.086C187.733 167.358 206.141 212.757 206.141 212.757C206.141 212.757 184.773 172.45 170.205 172.45C155.637 172.45 175.543 216.997 194.002 231.849C194.002 231.849 164.859 200.451 147.862 207.244C130.865 214.037 181.863 245.849 181.863 245.849C181.863 245.849 152.233 236.518 155.637 243.733C159.04 250.948 168.263 252.213 168.263 252.213L134.727 253.915H251.299L225.073 251.37C225.073 251.37 252.267 237.791 244.986 232.278C237.706 226.765 221.669 238.642 221.669 238.642C221.669 238.642 249.358 208.095 244.012 196.633C238.666 185.17 214.869 217.426 214.869 217.426C214.869 217.426 234.302 176.268 230.411 169.053C226.52 161.838 213.414 194.087 213.414 194.087Z" fill="white"/>
<path d="M217.298 195.629C206.614 227.201 206.614 249.544 206.614 249.544C206.614 249.544 219.24 250.024 232.353 240.315" stroke="#263238" stroke-linecap="round" stroke-linejoin="round"/>
<path d="M211.959 212.633C209.763 203.194 206.845 193.937 203.232 184.945" stroke="#263238" stroke-linecap="round" stroke-linejoin="round"/>
<path d="M180.387 194.174L207.588 234.489C207.588 234.489 226.04 218.946 232.353 210.204" stroke="#263238" stroke-linecap="round" stroke-linejoin="round"/>
<path d="M207.101 244.199C207.101 244.199 178.445 230.598 166.786 222.83" stroke="#263238" stroke-linecap="round" stroke-linejoin="round"/>
<path d="M193.806 36.3411H81.5094C78.7981 36.3411 76.6001 38.539 76.6001 41.2504V251.508C76.6001 254.219 78.7981 256.417 81.5094 256.417H193.806C196.517 256.417 198.715 254.219 198.715 251.508V41.2504C198.715 38.539 196.517 36.3411 193.806 36.3411Z" fill="#263238" stroke="#263238" stroke-miterlimit="10"/>
<path d="M146.102 49.4908H130.901C130.696 49.4908 130.492 49.4503 130.302 49.3717C130.113 49.2932 129.94 49.178 129.795 49.0328C129.65 48.8876 129.535 48.7152 129.456 48.5255C129.378 48.3357 129.337 48.1324 129.337 47.9271C129.337 47.7221 129.378 47.5191 129.456 47.3298C129.535 47.1404 129.65 46.9685 129.796 46.8239C129.941 46.6793 130.113 46.5648 130.303 46.487C130.493 46.4092 130.696 46.3697 130.901 46.3706H146.102C146.514 46.3706 146.91 46.5346 147.202 46.8265C147.494 47.1184 147.658 47.5143 147.658 47.9271C147.659 48.1321 147.619 48.3352 147.542 48.5249C147.464 48.7146 147.349 48.887 147.205 49.0323C147.06 49.1776 146.888 49.2929 146.699 49.3716C146.51 49.4503 146.307 49.4908 146.102 49.4908Z" fill="#4987FA"/>
<path d="M190.998 236.751H84.3169V49.6727H109.605L112.449 52.0292C113.44 52.8579 114.692 53.3111 115.984 53.3092H160.597C161.936 53.3018 163.227 52.8111 164.234 51.9273L166.801 49.6727H190.977L190.998 236.751Z" fill="white" stroke="#263238" stroke-width="0.938618" stroke-linecap="round" stroke-linejoin="round"/>
<path d="M126.923 63.4625L125.468 58.575H89.1608V63.4625V226.816V231.711H186.482V63.4625H126.923Z" fill="#4987FA"/>
<path d="M183.056 72.2701H92.5791V226.329H183.056V72.2701Z" fill="white"/>
<path d="M141.069 242.533C141.07 242.052 140.929 241.582 140.663 241.181C140.397 240.781 140.018 240.468 139.574 240.283C139.13 240.098 138.642 240.049 138.17 240.142C137.698 240.235 137.265 240.466 136.924 240.805C136.584 241.145 136.352 241.578 136.258 242.049C136.163 242.52 136.211 243.009 136.395 243.454C136.578 243.898 136.89 244.278 137.289 244.545C137.689 244.812 138.159 244.955 138.64 244.955C139.282 244.953 139.898 244.697 140.353 244.244C140.807 243.79 141.065 243.175 141.069 242.533Z" fill="#4987FA"/>
<path d="M131.025 219.601C147.477 219.601 160.815 200.623 160.815 177.213C160.815 153.803 147.477 134.826 131.025 134.826C114.572 134.826 101.234 153.803 101.234 177.213C101.234 200.623 114.572 219.601 131.025 219.601Z" fill="#4987FA"/>
<path opacity="0.5" d="M131.025 219.601C147.477 219.601 160.815 200.623 160.815 177.213C160.815 153.803 147.477 134.826 131.025 134.826C114.572 134.826 101.234 153.803 101.234 177.213C101.234 200.623 114.572 219.601 131.025 219.601Z" fill="white"/>
<path d="M135.25 129.902C135.25 129.902 133.388 126.789 131.679 126.636C129.97 126.483 109.62 139.255 106.507 145.903C103.394 152.55 100.448 165.889 108.689 178.726C116.726 191.214 129.323 190.799 135.854 190.174C142.385 189.548 146.763 187.425 153.382 182.115C160 176.806 166.074 168.987 166.954 163.678C167.834 158.369 164.597 155.416 162.532 154.681C160.466 153.947 148.516 154.092 139.81 145.226C131.105 136.36 135.25 129.902 135.25 129.902Z" fill="#263238" stroke="#263238" stroke-linecap="round" stroke-linejoin="round"/>
<path d="M137.89 125.858C137.89 125.858 132.61 127.88 129.344 131.451C126.079 135.022 124.064 140.622 123.911 148.855C123.759 157.089 126.399 166.405 136.647 170.449C146.894 174.493 156.066 171.38 159.019 168.58C161.971 165.78 165.564 157.867 165.564 157.867C165.564 157.867 149.258 162.231 141.49 153.045C133.723 143.859 137.89 125.858 137.89 125.858Z" fill="white" stroke="#263238" stroke-linecap="round" stroke-linejoin="round"/>
<path d="M229.153 131.596C225.167 125.618 215.654 123.851 208.134 121.414C200.613 118.978 196.184 114.141 198.177 102.17C200.17 90.198 210.541 70.7498 210.345 67.2078C210.148 63.6658 174.503 63.8913 171.179 65.0259C167.855 66.1605 167.201 65.906 164.102 69.8916C162.385 72.044 160.832 74.322 159.455 76.7065L163.295 68.6334H163.579C163.996 67.5723 164.589 66.5889 165.332 65.7241C168.711 61.8037 170.626 56.8324 170.75 51.658C170.896 44.0431 165.477 44.7777 164.452 47.1196C163.426 49.4615 157.426 57.5201 155.666 59.7166C153.906 61.913 150.247 67.9206 150.247 67.9206L146.182 82.0158C146.182 82.0158 145.294 86.2197 140.203 102.155C135.112 118.09 137.33 125.436 137.33 125.436C137.33 125.436 135.999 124.774 132.901 134.287C129.803 143.801 131.134 155.969 136.661 161.722C142.189 167.475 149.498 167.256 157.688 163.94C162.725 161.781 166.921 158.038 169.637 153.277C169.637 153.277 178.27 151.096 184.685 146.201C191.1 141.306 195.966 136.244 205.275 136.688C214.585 137.131 225.189 142.441 228.731 142.215C232.273 141.99 233.139 137.568 229.153 131.596Z" fill="white"/>
<path d="M172.081 110.89C147.462 114.563 139.723 120.44 142.181 128.527C142.692 130.131 143.52 131.615 144.618 132.891C144.618 133.044 144.618 133.211 144.662 133.386C144.662 133.386 145.098 133.647 145.753 134.113C146.614 134.945 147.546 135.702 148.538 136.375C150.153 137.909 151.6 139.83 151.302 141.611C150.669 145.408 141.847 152.041 137.389 152.361C132.93 152.681 131.381 148.252 130.748 152.994C130.115 157.736 139.92 169.431 149.404 168.165C158.888 166.9 166.794 153.619 166.794 153.619C166.794 153.619 165.528 151.437 171.885 144.768C176.059 140.404 182.031 138.477 186.605 136.688C190.924 135.417 195.135 133.802 199.195 131.858C210.447 126.345 223.815 130.025 223.815 130.025C223.815 130.025 196.7 107.173 172.081 110.89Z" fill="#4987FA"/>
<path opacity="0.5" d="M172.081 110.89C147.462 114.563 139.723 120.44 142.181 128.527C142.692 130.131 143.52 131.615 144.618 132.891C144.618 133.044 144.618 133.211 144.662 133.386C144.662 133.386 145.098 133.647 145.753 134.113C146.614 134.945 147.546 135.702 148.538 136.375C150.153 137.909 151.6 139.83 151.302 141.611C150.669 145.408 141.847 152.041 137.389 152.361C132.93 152.681 131.381 148.252 130.748 152.994C130.115 157.736 139.92 169.431 149.404 168.165C158.888 166.9 166.794 153.619 166.794 153.619C166.794 153.619 165.528 151.437 171.885 144.768C176.059 140.404 182.031 138.477 186.605 136.688C190.924 135.417 195.135 133.802 199.195 131.858C210.447 126.345 223.815 130.025 223.815 130.025C223.815 130.025 196.7 107.173 172.081 110.89Z" fill="white"/>
<path d="M229.153 131.596C225.167 125.618 215.654 123.851 208.134 121.414C200.613 118.978 196.184 114.141 198.177 102.17C200.17 90.198 210.541 70.7498 210.345 67.2078C210.148 63.6658 174.503 63.8913 171.179 65.0259C167.855 66.1605 167.201 65.906 164.102 69.8916C162.385 72.044 160.832 74.322 159.455 76.7065L163.295 68.6334H163.579C163.996 67.5723 164.589 66.5889 165.332 65.7241C168.711 61.8037 170.626 56.8324 170.75 51.658C170.896 44.0431 165.477 44.7777 164.452 47.1196C163.426 49.4615 157.426 57.5201 155.666 59.7166C153.906 61.913 150.247 67.9206 150.247 67.9206L146.182 82.0158C146.182 82.0158 145.294 86.2197 140.203 102.155C135.112 118.09 137.33 125.436 137.33 125.436C137.33 125.436 135.999 124.774 132.901 134.287C129.803 143.801 131.134 155.969 136.661 161.722C142.189 167.475 149.498 167.256 157.688 163.94C162.725 161.781 166.921 158.038 169.637 153.277C169.637 153.277 178.27 151.096 184.685 146.201C191.1 141.306 195.966 136.244 205.275 136.688C214.585 137.131 225.189 142.441 228.731 142.215C232.273 141.99 233.139 137.568 229.153 131.596Z" stroke="#263238" stroke-linecap="round" stroke-linejoin="round"/>
<path d="M229.277 142.164C229.277 142.164 229.742 140.302 224.462 137.8C219.182 135.298 217.007 137.022 217.007 138.266C217.007 139.51 228.462 142.164 229.277 142.164Z" fill="white" stroke="#263238" stroke-linecap="round" stroke-linejoin="round"/>
<path d="M179.245 56.9456L165.921 67.2007H183.791C183.791 67.2007 183.791 54.6037 179.245 56.9456Z" fill="white" stroke="#263238" stroke-linecap="round" stroke-linejoin="round"/>
<path d="M162.531 130.913C164.424 128.774 166.783 127.099 169.426 126.018" stroke="#263238" stroke-linecap="round" stroke-linejoin="round"/>
<path d="M160.11 134.891C160.314 134.3 160.58 133.732 160.902 133.197" stroke="#263238" stroke-linecap="round" stroke-linejoin="round"/>
<path d="M154.8 148.71C154.088 148.083 153.421 147.405 152.807 146.681" stroke="#263238" stroke-linecap="round" stroke-linejoin="round"/>
<path d="M169.637 153.278C165.528 153.745 161.376 152.894 157.782 150.848" stroke="#263238" stroke-linecap="round" stroke-linejoin="round"/>
<path d="M219.458 66.3206H152.313C143.04 66.3206 135.527 73.4991 135.527 82.3214V113.959C135.527 121.654 141.207 128.084 148.785 129.633L145.243 140.113L161.637 130.018H219.458C228.724 130.018 236.244 122.84 236.244 114.017V82.3796C236.244 73.4991 228.724 66.3206 219.458 66.3206Z" fill="#4987FA" stroke="#263238" stroke-width="2" stroke-miterlimit="10"/>
<path d="M146.458 87.6234H221.938" stroke="#263238" stroke-width="2.06409" stroke-miterlimit="10" stroke-linecap="round"/>
<path d="M146.458 95.3985H221.938" stroke="#263238" stroke-width="2.06409" stroke-miterlimit="10" stroke-linecap="round"/>
<path d="M146.458 103.166H221.938" stroke="#263238" stroke-width="2.06409" stroke-miterlimit="10" stroke-linecap="round"/>
<path d="M146.458 110.934H221.938" stroke="#263238" stroke-width="2.06409" stroke-miterlimit="10" stroke-linecap="round"/>
<path d="M235.633 94.0528C240.803 94.0528 244.994 90.0508 244.994 85.1142C244.994 80.1775 240.803 76.1756 235.633 76.1756C230.464 76.1756 226.273 80.1775 226.273 85.1142C226.273 90.0508 230.464 94.0528 235.633 94.0528Z" fill="#263238"/>
<path d="M234.906 91.4272C234.598 90.8127 234.46 90.1273 234.506 89.4416V82.1685L232.862 83.0849C232.685 83.1873 232.485 83.2424 232.28 83.2449C232.127 83.2465 231.975 83.2156 231.835 83.1541C231.694 83.0927 231.569 83.0022 231.466 82.8886C231.252 82.6661 231.134 82.3681 231.138 82.0594C231.134 81.8496 231.195 81.6436 231.313 81.4703C231.483 81.2673 231.684 81.0929 231.909 80.9539L235.095 79.3248C235.451 79.0696 235.867 78.9117 236.302 78.8665C237.386 78.8665 237.924 79.6811 237.924 81.3103V89.6962C237.924 91.289 237.357 92.0817 236.215 92.0817C235.958 92.1044 235.699 92.0553 235.468 91.9397C235.237 91.8241 235.042 91.6467 234.906 91.4272Z" fill="white"/>
<path d="M199.719 61.6366C199.719 61.6366 200.017 67.4915 205.29 70.277C210.563 73.0626 217.298 72.459 217.443 68.9606C217.589 65.4623 213.487 61.7821 210.708 57.0909C207.93 52.3998 201.77 55.0472 199.137 58.2692" fill="white"/>
<path d="M199.719 61.6366C199.719 61.6366 200.017 67.4915 205.29 70.277C210.563 73.0626 217.298 72.459 217.443 68.9606C217.589 65.4623 213.487 61.7821 210.708 57.0909C207.93 52.3998 201.77 55.0472 199.137 58.2692" stroke="#263238" stroke-linecap="round" stroke-linejoin="round"/>
<path d="M208.803 66.3207C208.359 68.6626 209.974 69.9572 211.436 70.6845C212.898 71.4118 215.8 70.9827 217.443 68.9317C217.516 67.2153 216.578 65.4697 215.261 63.586C213.429 63.8187 209.145 64.4879 208.803 66.3207Z" fill="white" stroke="#263238" stroke-linecap="round" stroke-linejoin="round"/>
<path d="M188.736 61.6366C188.736 61.6366 189.027 67.4915 194.3 70.277C199.573 73.0626 206.315 72.459 206.461 68.9606C206.606 65.4623 202.504 61.7821 199.719 57.0909C196.933 52.3998 190.787 55.0472 188.147 58.2692" fill="white"/>
<path d="M188.736 61.6366C188.736 61.6366 189.027 67.4915 194.3 70.277C199.573 73.0626 206.315 72.459 206.461 68.9606C206.606 65.4623 202.504 61.7821 199.719 57.0909C196.933 52.3998 190.787 55.0472 188.147 58.2692" stroke="#263238" stroke-linecap="round" stroke-linejoin="round"/>
<path d="M197.82 66.3207C197.377 68.6626 198.991 69.9572 200.453 70.6845C201.915 71.4118 204.817 70.9827 206.461 68.9317C206.526 67.2153 205.588 65.4697 204.279 63.586C202.446 63.8187 198.162 64.4879 197.82 66.3207Z" fill="white" stroke="#263238" stroke-linecap="round" stroke-linejoin="round"/>
<path d="M178.518 61.6366C178.518 61.6366 178.809 67.4915 184.082 70.277C189.355 73.0626 196.09 72.459 196.235 68.9606C196.381 65.4623 192.286 61.7821 189.5 57.0909C186.715 52.3998 180.562 55.0472 177.929 58.2692" fill="white"/>
<path d="M178.518 61.6366C178.518 61.6366 178.809 67.4915 184.082 70.277C189.355 73.0626 196.09 72.459 196.235 68.9606C196.381 65.4623 192.286 61.7821 189.5 57.0909C186.715 52.3998 180.562 55.0472 177.929 58.2692" stroke="#263238" stroke-linecap="round" stroke-linejoin="round"/>
<path d="M187.595 66.3207C187.158 68.6626 188.765 69.9572 190.235 70.6845C191.704 71.4118 194.599 70.9827 196.235 68.9317C196.308 67.2153 195.369 65.4697 194.053 63.586C192.22 63.8187 187.936 64.4879 187.595 66.3207Z" fill="white" stroke="#263238" stroke-linecap="round" stroke-linejoin="round"/>
<path d="M137.33 125.436C137.33 125.436 137.738 134.44 142.705 140.499" stroke="#263238" stroke-linecap="round" stroke-linejoin="round"/>
<path d="M122.871 163.016C122.871 164.849 121.65 166.333 120.144 166.333C118.639 166.333 117.417 164.878 117.417 163.016C117.417 161.154 118.639 159.7 120.144 159.7C121.65 159.7 122.871 161.183 122.871 163.016Z" fill="white"/>
<path d="M116.086 167.147C116.086 168.98 114.864 170.464 113.358 170.464C111.853 170.464 110.631 169.009 110.631 167.147C110.631 165.285 111.853 163.824 113.358 163.824C114.864 163.824 116.086 165.315 116.086 167.147Z" stroke="#263238" stroke-linecap="round" stroke-linejoin="round"/>
</svg>
